<svg xmlns="http://www.w3.org/2000/svg" xmlns:xlink="http://www.w3.org/1999/xlink" width="1024" zoomAndPan="magnify" viewBox="0 0 768 767.999994" height="1024" preserveAspectRatio="xMidYMid meet" version="1.0"><defs><clipPath id="18863befb3"><path d="M 178 215 L 536 215 L 536 393.035156 L 178 393.035156 Z M 178 215 " clip-rule="nonzero"/></clipPath><clipPath id="9064863aa4"><path d="M 428 188.285156 L 551.4375 188.285156 L 551.4375 232 L 428 232 Z M 428 188.285156 " clip-rule="nonzero"/></clipPath><clipPath id="06479f103d"><path d="M 517 188.285156 L 551.4375 188.285156 L 551.4375 308 L 517 308 Z M 517 188.285156 " clip-rule="nonzero"/></clipPath><clipPath id="2c3eb24b5a"><path d="M 163.972656 188.285156 L 602 188.285156 L 602 628 L 163.972656 628 Z M 163.972656 188.285156 " clip-rule="nonzero"/></clipPath><clipPath id="b801404cdc"><path d="M 308.503906 188.285156 C 311.914062 188.292969 315.324219 188.421875 318.726562 188.671875 C 322.128906 188.917969 325.519531 189.285156 328.898438 189.773438 C 332.273438 190.261719 335.628906 190.867188 338.964844 191.59375 C 342.296875 192.316406 345.601562 193.160156 348.878906 194.117188 C 352.152344 195.074219 355.390625 196.148438 358.589844 197.335938 C 361.789062 198.519531 364.941406 199.820312 368.050781 201.226562 C 371.15625 202.636719 374.210938 204.152344 377.210938 205.777344 C 380.210938 207.402344 383.152344 209.132812 386.03125 210.964844 C 388.910156 212.796875 391.71875 214.726562 394.460938 216.757812 C 397.203125 218.789062 399.871094 220.914062 402.460938 223.132812 C 405.054688 225.351562 407.566406 227.660156 409.996094 230.054688 C 412.421875 232.453125 414.765625 234.933594 417.019531 237.492188 C 419.273438 240.054688 421.433594 242.691406 423.503906 245.40625 C 425.570312 248.121094 427.539062 250.90625 429.410156 253.757812 C 431.28125 256.609375 433.050781 259.527344 434.71875 262.503906 C 436.382812 265.484375 437.941406 268.515625 439.390625 271.605469 C 440.84375 274.691406 442.183594 277.828125 443.414062 281.011719 C 444.644531 284.191406 445.761719 287.414062 446.761719 290.675781 C 447.765625 293.9375 448.652344 297.230469 449.421875 300.554688 C 450.191406 303.878906 450.84375 307.226562 451.378906 310.597656 C 451.910156 313.96875 452.324219 317.351562 452.621094 320.75 C 452.914062 324.152344 453.089844 327.554688 453.144531 330.96875 C 453.199219 334.378906 453.132812 337.789062 452.945312 341.195312 C 452.761719 344.605469 452.453125 348 452.027344 351.386719 C 451.601562 354.769531 451.058594 358.136719 450.394531 361.484375 C 449.730469 364.832031 448.949219 368.152344 448.050781 371.441406 C 447.152344 374.734375 446.140625 377.988281 445.011719 381.210938 C 443.882812 384.429688 442.644531 387.609375 441.289062 390.738281 C 439.9375 393.871094 438.476562 396.953125 436.90625 399.984375 C 435.335938 403.011719 433.664062 405.984375 431.882812 408.894531 C 430.105469 411.808594 428.222656 414.652344 426.242188 417.429688 C 424.261719 420.210938 422.1875 422.914062 420.015625 425.546875 L 440.316406 445.84375 L 457.976562 428.445312 L 589.789062 560.257812 C 590.710938 561.167969 591.585938 562.125 592.414062 563.121094 C 593.242188 564.117188 594.019531 565.15625 594.742188 566.230469 C 595.46875 567.304688 596.140625 568.414062 596.753906 569.554688 C 597.371094 570.695312 597.929688 571.863281 598.425781 573.058594 C 598.925781 574.253906 599.367188 575.472656 599.746094 576.714844 C 600.125 577.953125 600.441406 579.207031 600.695312 580.480469 C 600.953125 581.75 601.144531 583.03125 601.273438 584.320312 C 601.398438 585.613281 601.464844 586.90625 601.464844 588.203125 C 601.464844 589.5 601.398438 590.792969 601.273438 592.082031 C 601.144531 593.371094 600.953125 594.652344 600.695312 595.921875 C 600.441406 597.195312 600.125 598.449219 599.746094 599.691406 C 599.367188 600.929688 598.925781 602.148438 598.425781 603.34375 C 597.929688 604.539062 597.371094 605.710938 596.753906 606.851562 C 596.140625 607.992188 595.46875 609.097656 594.742188 610.175781 C 594.019531 611.25 593.242188 612.285156 592.414062 613.28125 C 591.585938 614.28125 590.710938 615.234375 589.789062 616.144531 C 587.972656 618.007812 585.988281 619.664062 583.835938 621.125 C 581.683594 622.582031 579.40625 623.808594 577.003906 624.804688 C 574.601562 625.804688 572.125 626.550781 569.574219 627.042969 C 567.019531 627.539062 564.445312 627.773438 561.84375 627.746094 C 559.246094 627.773438 556.667969 627.539062 554.117188 627.042969 C 551.5625 626.550781 549.085938 625.804688 546.683594 624.804688 C 544.285156 623.808594 542.007812 622.582031 539.855469 621.125 C 537.703125 619.664062 535.71875 618.007812 533.902344 616.144531 L 400.769531 483.015625 L 420.542969 463.246094 L 399.980469 442.683594 C 396.839844 445.433594 393.585938 448.046875 390.214844 450.515625 C 386.847656 452.984375 383.378906 455.300781 379.808594 457.46875 C 376.238281 459.632812 372.578125 461.640625 368.832031 463.488281 C 365.085938 465.335938 361.269531 467.015625 357.375 468.53125 C 353.484375 470.046875 349.53125 471.386719 345.523438 472.558594 C 341.511719 473.726562 337.460938 474.71875 333.363281 475.535156 C 329.269531 476.351562 325.144531 476.988281 320.992188 477.445312 C 316.84375 477.902344 312.679688 478.175781 308.503906 478.269531 C 306.128906 478.269531 303.757812 478.214844 301.390625 478.097656 C 299.019531 477.980469 296.652344 477.804688 294.292969 477.574219 C 291.929688 477.339844 289.574219 477.050781 287.230469 476.703125 C 284.882812 476.355469 282.542969 475.949219 280.21875 475.484375 C 277.890625 475.023438 275.574219 474.503906 273.273438 473.925781 C 270.972656 473.347656 268.683594 472.714844 266.414062 472.027344 C 264.144531 471.339844 261.890625 470.59375 259.65625 469.796875 C 257.421875 468.996094 255.210938 468.140625 253.015625 467.234375 C 250.824219 466.328125 248.65625 465.363281 246.511719 464.351562 C 244.367188 463.335938 242.246094 462.269531 240.15625 461.152344 C 238.0625 460.03125 235.996094 458.863281 233.960938 457.644531 C 231.925781 456.421875 229.921875 455.152344 227.949219 453.835938 C 225.976562 452.515625 224.039062 451.152344 222.132812 449.738281 C 220.226562 448.324219 218.355469 446.863281 216.519531 445.359375 C 214.6875 443.855469 212.890625 442.304688 211.132812 440.710938 C 209.375 439.117188 207.65625 437.480469 205.976562 435.804688 C 204.300781 434.125 202.664062 432.40625 201.070312 430.648438 C 199.476562 428.890625 197.929688 427.09375 196.421875 425.261719 C 194.917969 423.425781 193.457031 421.554688 192.042969 419.652344 C 190.632812 417.746094 189.265625 415.804688 187.945312 413.832031 C 186.628906 411.859375 185.359375 409.855469 184.140625 407.820312 C 182.917969 405.785156 181.75 403.71875 180.632812 401.628906 C 179.511719 399.535156 178.445312 397.417969 177.433594 395.269531 C 176.417969 393.125 175.457031 390.957031 174.546875 388.765625 C 173.640625 386.574219 172.785156 384.359375 171.988281 382.125 C 171.1875 379.890625 170.441406 377.636719 169.753906 375.367188 C 169.066406 373.097656 168.433594 370.8125 167.855469 368.507812 C 167.28125 366.207031 166.761719 363.894531 166.296875 361.566406 C 165.835938 359.238281 165.429688 356.902344 165.082031 354.554688 C 164.730469 352.207031 164.441406 349.851562 164.210938 347.492188 C 163.976562 345.128906 163.800781 342.761719 163.6875 340.394531 C 163.570312 338.023438 163.511719 335.652344 163.511719 333.277344 C 163.511719 330.90625 163.570312 328.535156 163.6875 326.164062 C 163.800781 323.792969 163.976562 321.429688 164.210938 319.066406 C 164.441406 316.707031 164.730469 314.351562 165.082031 312.003906 C 165.429688 309.65625 165.835938 307.320312 166.296875 304.992188 C 166.761719 302.664062 167.28125 300.351562 167.855469 298.046875 C 168.433594 295.746094 169.066406 293.460938 169.753906 291.191406 C 170.441406 288.917969 171.1875 286.667969 171.988281 284.433594 C 172.785156 282.199219 173.640625 279.984375 174.546875 277.792969 C 175.457031 275.601562 176.417969 273.429688 177.433594 271.285156 C 178.445312 269.140625 179.511719 267.023438 180.632812 264.929688 C 181.75 262.835938 182.917969 260.773438 184.140625 258.738281 C 185.359375 256.703125 186.628906 254.699219 187.945312 252.726562 C 189.265625 250.753906 190.632812 248.8125 192.042969 246.90625 C 193.457031 245 194.917969 243.128906 196.421875 241.296875 C 197.929688 239.460938 199.476562 237.664062 201.070312 235.90625 C 202.664062 234.148438 204.300781 232.429688 205.976562 230.753906 C 207.65625 229.074219 209.375 227.441406 211.132812 225.847656 C 212.890625 224.253906 214.6875 222.703125 216.519531 221.199219 C 218.355469 219.691406 220.226562 218.234375 222.132812 216.820312 C 224.039062 215.40625 225.976562 214.039062 227.949219 212.722656 C 229.921875 211.402344 231.925781 210.132812 233.960938 208.914062 C 235.996094 207.695312 238.0625 206.523438 240.15625 205.40625 C 242.246094 204.289062 244.367188 203.222656 246.511719 202.207031 C 248.65625 201.191406 250.824219 200.230469 253.015625 199.324219 C 255.210938 198.414062 257.421875 197.5625 259.65625 196.761719 C 261.890625 195.960938 264.144531 195.21875 266.414062 194.53125 C 268.683594 193.839844 270.972656 193.207031 273.273438 192.632812 C 275.574219 192.054688 277.890625 191.535156 280.21875 191.070312 C 282.542969 190.609375 284.882812 190.203125 287.230469 189.855469 C 289.574219 189.507812 291.929688 189.21875 294.292969 188.984375 C 296.652344 188.75 299.019531 188.578125 301.390625 188.460938 C 303.757812 188.34375 306.128906 188.285156 308.503906 188.285156 Z M 563.164062 603.226562 C 564.453125 603.210938 565.714844 603.007812 566.945312 602.617188 C 568.171875 602.230469 569.324219 601.675781 570.390625 600.949219 C 571.457031 600.222656 572.394531 599.359375 573.210938 598.359375 C 574.023438 597.355469 574.675781 596.261719 575.167969 595.066406 C 575.65625 593.875 575.96875 592.636719 576.09375 591.351562 C 576.222656 590.070312 576.164062 588.792969 575.914062 587.527344 C 575.667969 586.261719 575.246094 585.058594 574.644531 583.914062 C 574.042969 582.773438 573.292969 581.742188 572.390625 580.820312 L 556.835938 565.003906 L 538.117188 583.71875 L 553.9375 599.539062 C 555.175781 600.730469 556.59375 601.648438 558.1875 602.285156 C 559.785156 602.925781 561.445312 603.238281 563.164062 603.226562 Z M 519.402344 565.003906 L 538.117188 546.550781 L 459.03125 466.144531 L 440.316406 484.863281 Z M 308.503906 451.910156 C 310.445312 451.910156 312.386719 451.859375 314.324219 451.765625 C 316.261719 451.671875 318.199219 451.527344 320.132812 451.335938 C 322.0625 451.148438 323.988281 450.910156 325.910156 450.625 C 327.832031 450.339844 329.742188 450.007812 331.648438 449.628906 C 333.550781 449.25 335.445312 448.824219 337.328125 448.355469 C 339.210938 447.882812 341.082031 447.363281 342.941406 446.800781 C 344.796875 446.238281 346.640625 445.628906 348.46875 444.972656 C 350.296875 444.320312 352.109375 443.621094 353.902344 442.878906 C 355.695312 442.136719 357.46875 441.347656 359.222656 440.519531 C 360.980469 439.6875 362.714844 438.816406 364.425781 437.902344 C 366.136719 436.984375 367.828125 436.03125 369.492188 435.03125 C 371.15625 434.03125 372.796875 432.996094 374.410156 431.917969 C 376.023438 430.835938 377.613281 429.71875 379.171875 428.5625 C 380.730469 427.40625 382.261719 426.210938 383.761719 424.980469 C 385.261719 423.75 386.730469 422.480469 388.171875 421.179688 C 389.609375 419.875 391.015625 418.535156 392.386719 417.164062 C 393.761719 415.789062 395.097656 414.382812 396.402344 412.945312 C 397.707031 411.507812 398.972656 410.039062 400.207031 408.535156 C 401.4375 407.035156 402.632812 405.507812 403.789062 403.945312 C 404.945312 402.386719 406.0625 400.800781 407.140625 399.1875 C 408.21875 397.570312 409.257812 395.933594 410.257812 394.265625 C 411.253906 392.601562 412.210938 390.914062 413.125 389.199219 C 414.042969 387.488281 414.914062 385.753906 415.742188 384 C 416.574219 382.246094 417.359375 380.46875 418.105469 378.675781 C 418.847656 376.882812 419.546875 375.070312 420.199219 373.242188 C 420.851562 371.417969 421.460938 369.574219 422.027344 367.714844 C 422.589844 365.855469 423.105469 363.988281 423.578125 362.105469 C 424.050781 360.21875 424.476562 358.328125 424.855469 356.421875 C 425.234375 354.519531 425.566406 352.605469 425.851562 350.683594 C 426.132812 348.765625 426.371094 346.839844 426.5625 344.90625 C 426.753906 342.972656 426.894531 341.039062 426.992188 339.101562 C 427.085938 337.160156 427.132812 335.21875 427.132812 333.277344 C 427.132812 331.335938 427.085938 329.398438 426.992188 327.457031 C 426.894531 325.519531 426.753906 323.582031 426.5625 321.652344 C 426.371094 319.71875 426.132812 317.792969 425.851562 315.871094 C 425.566406 313.953125 425.234375 312.039062 424.855469 310.136719 C 424.476562 308.230469 424.050781 306.335938 423.578125 304.453125 C 423.105469 302.570312 422.589844 300.699219 422.027344 298.84375 C 421.460938 296.984375 420.851562 295.140625 420.199219 293.3125 C 419.546875 291.484375 418.847656 289.675781 418.105469 287.882812 C 417.359375 286.085938 416.574219 284.3125 415.742188 282.558594 C 414.914062 280.800781 414.042969 279.070312 413.125 277.355469 C 412.210938 275.644531 411.253906 273.957031 410.257812 272.289062 C 409.257812 270.625 408.21875 268.984375 407.140625 267.371094 C 406.0625 265.757812 404.945312 264.171875 403.789062 262.609375 C 402.632812 261.050781 401.4375 259.519531 400.207031 258.019531 C 398.972656 256.519531 397.707031 255.050781 396.402344 253.613281 C 395.097656 252.171875 393.761719 250.765625 392.386719 249.394531 C 391.015625 248.023438 389.609375 246.683594 388.171875 245.378906 C 386.730469 244.074219 385.261719 242.808594 383.761719 241.578125 C 382.261719 240.34375 380.730469 239.152344 379.171875 237.992188 C 377.613281 236.835938 376.023438 235.71875 374.410156 234.640625 C 372.796875 233.5625 371.15625 232.523438 369.492188 231.527344 C 367.828125 230.527344 366.136719 229.570312 364.425781 228.65625 C 362.714844 227.742188 360.980469 226.867188 359.222656 226.039062 C 357.46875 225.207031 355.695312 224.421875 353.902344 223.679688 C 352.109375 222.9375 350.296875 222.238281 348.46875 221.582031 C 346.640625 220.929688 344.796875 220.320312 342.941406 219.757812 C 341.082031 219.191406 339.210938 218.675781 337.328125 218.203125 C 335.445312 217.730469 333.550781 217.308594 331.648438 216.929688 C 329.742188 216.550781 327.832031 216.21875 325.910156 215.933594 C 323.988281 215.648438 322.0625 215.410156 320.132812 215.21875 C 318.199219 215.03125 316.261719 214.886719 314.324219 214.792969 C 312.386719 214.695312 310.445312 214.648438 308.503906 214.648438 C 306.5625 214.648438 304.621094 214.695312 302.683594 214.792969 C 300.742188 214.886719 298.808594 215.03125 296.875 215.21875 C 294.945312 215.410156 293.015625 215.648438 291.097656 215.933594 C 289.175781 216.21875 287.265625 216.550781 285.359375 216.929688 C 283.457031 217.308594 281.5625 217.730469 279.679688 218.203125 C 277.796875 218.675781 275.925781 219.191406 274.066406 219.757812 C 272.210938 220.320312 270.367188 220.929688 268.539062 221.582031 C 266.710938 222.238281 264.898438 222.9375 263.105469 223.679688 C 261.3125 224.421875 259.539062 225.207031 257.78125 226.039062 C 256.027344 226.867188 254.292969 227.742188 252.582031 228.65625 C 250.871094 229.570312 249.179688 230.527344 247.515625 231.527344 C 245.851562 232.523438 244.210938 233.5625 242.597656 234.640625 C 240.980469 235.71875 239.394531 236.835938 237.835938 237.992188 C 236.277344 239.152344 234.746094 240.34375 233.246094 241.578125 C 231.746094 242.808594 230.273438 244.074219 228.835938 245.378906 C 227.398438 246.683594 225.992188 248.023438 224.621094 249.394531 C 223.246094 250.765625 221.90625 252.171875 220.605469 253.613281 C 219.300781 255.050781 218.03125 256.519531 216.800781 258.019531 C 215.570312 259.519531 214.375 261.050781 213.21875 262.609375 C 212.0625 264.171875 210.945312 265.757812 209.867188 267.371094 C 208.789062 268.984375 207.75 270.625 206.75 272.289062 C 205.753906 273.957031 204.796875 275.644531 203.882812 277.355469 C 202.964844 279.070312 202.09375 280.800781 201.261719 282.558594 C 200.433594 284.3125 199.648438 286.085938 198.902344 287.882812 C 198.160156 289.675781 197.460938 291.484375 196.808594 293.3125 C 196.152344 295.140625 195.546875 296.984375 194.980469 298.84375 C 194.417969 300.699219 193.898438 302.570312 193.429688 304.453125 C 192.957031 306.335938 192.53125 308.230469 192.152344 310.136719 C 191.773438 312.039062 191.441406 313.953125 191.15625 315.871094 C 190.871094 317.792969 190.636719 319.71875 190.445312 321.652344 C 190.253906 323.582031 190.113281 325.519531 190.015625 327.457031 C 189.921875 329.398438 189.875 331.335938 189.875 333.277344 C 189.878906 335.21875 189.929688 337.15625 190.027344 339.097656 C 190.128906 341.035156 190.273438 342.96875 190.46875 344.898438 C 190.664062 346.828125 190.902344 348.753906 191.191406 350.671875 C 191.480469 352.589844 191.816406 354.5 192.195312 356.402344 C 192.578125 358.304688 193.007812 360.199219 193.480469 362.078125 C 193.953125 363.960938 194.472656 365.828125 195.039062 367.6875 C 195.605469 369.542969 196.21875 371.382812 196.871094 373.207031 C 197.527344 375.035156 198.230469 376.84375 198.972656 378.636719 C 199.71875 380.425781 200.507812 382.199219 201.335938 383.953125 C 202.167969 385.707031 203.042969 387.4375 203.957031 389.148438 C 204.875 390.859375 205.832031 392.546875 206.832031 394.210938 C 207.828125 395.875 208.867188 397.511719 209.945312 399.125 C 211.027344 400.738281 212.144531 402.320312 213.300781 403.878906 C 214.457031 405.4375 215.648438 406.964844 216.882812 408.464844 C 218.113281 409.964844 219.378906 411.433594 220.683594 412.871094 C 221.988281 414.308594 223.324219 415.714844 224.695312 417.085938 C 226.066406 418.457031 227.472656 419.796875 228.910156 421.097656 C 230.347656 422.402344 231.816406 423.667969 233.316406 424.902344 C 234.816406 426.132812 236.34375 427.324219 237.902344 428.480469 C 239.460938 429.640625 241.046875 430.757812 242.660156 431.835938 C 244.269531 432.914062 245.910156 433.953125 247.574219 434.953125 C 249.234375 435.949219 250.921875 436.90625 252.632812 437.824219 C 254.34375 438.738281 256.074219 439.613281 257.828125 440.445312 C 259.582031 441.277344 261.355469 442.0625 263.148438 442.808594 C 264.9375 443.554688 266.746094 444.253906 268.574219 444.910156 C 270.398438 445.566406 272.242188 446.175781 274.097656 446.742188 C 275.953125 447.308594 277.820312 447.828125 279.703125 448.300781 C 281.582031 448.777344 283.476562 449.203125 285.378906 449.585938 C 287.28125 449.96875 289.191406 450.300781 291.109375 450.589844 C 293.027344 450.878906 294.953125 451.121094 296.882812 451.3125 C 298.816406 451.507812 300.75 451.65625 302.6875 451.753906 C 304.625 451.851562 306.5625 451.90625 308.503906 451.910156 Z M 308.503906 451.910156 " clip-rule="nonzero"/></clipPath><linearGradient x1="0.0471405" gradientTransform="matrix(-26.362274, 0, 0, 26.362274, 602.706478, 188.286209)" y1="8.37" x2="16.642443" gradientUnits="userSpaceOnUse" y2="8.37" id="b4b33742f4"><stop stop-opacity="1" stop-color="rgb(36.869812%, 73.432922%, 89.738464%)" offset="0"/><stop stop-opacity="1" stop-color="rgb(36.828613%, 73.065186%, 89.653015%)" offset="0.00390625"/><stop stop-opacity="1" stop-color="rgb(36.78894%, 72.698975%, 89.569092%)" offset="0.0078125"/><stop stop-opacity="1" stop-color="rgb(36.747742%, 72.331238%, 89.485168%)" offset="0.0117188"/><stop stop-opacity="1" stop-color="rgb(36.708069%, 71.965027%, 89.401245%)" offset="0.015625"/><stop stop-opacity="1" stop-color="rgb(36.66687%, 71.59729%, 89.317322%)" offset="0.0195313"/><stop stop-opacity="1" stop-color="rgb(36.627197%, 71.231079%, 89.233398%)" offset="0.0234375"/><stop stop-opacity="1" stop-color="rgb(36.585999%, 70.863342%, 89.147949%)" offset="0.0273438"/><stop stop-opacity="1" stop-color="rgb(36.546326%, 70.497131%, 89.064026%)" offset="0.03125"/><stop stop-opacity="1" stop-color="rgb(36.505127%, 70.129395%, 88.980103%)" offset="0.0351563"/><stop stop-opacity="1" stop-color="rgb(36.465454%, 69.763184%, 88.896179%)" offset="0.0390625"/><stop stop-opacity="1" stop-color="rgb(36.424255%, 69.395447%, 88.812256%)" offset="0.0429688"/><stop stop-opacity="1" stop-color="rgb(36.383057%, 69.029236%, 88.728333%)" offset="0.046875"/><stop stop-opacity="1" stop-color="rgb(36.341858%, 68.663025%, 88.642883%)" offset="0.0507812"/><stop stop-opacity="1" stop-color="rgb(36.302185%, 68.296814%, 88.55896%)" offset="0.0546875"/><stop stop-opacity="1" stop-color="rgb(36.260986%, 67.929077%, 88.475037%)" offset="0.0585938"/><stop stop-opacity="1" stop-color="rgb(36.221313%, 67.562866%, 88.391113%)" offset="0.0625"/><stop stop-opacity="1" stop-color="rgb(36.180115%, 67.195129%, 88.30719%)" offset="0.0664063"/><stop stop-opacity="1" stop-color="rgb(36.140442%, 66.828918%, 88.223267%)" offset="0.0703125"/><stop stop-opacity="1" stop-color="rgb(36.099243%, 66.461182%, 88.137817%)" offset="0.0742188"/><stop stop-opacity="1" stop-color="rgb(36.05957%, 66.094971%, 88.053894%)" offset="0.078125"/><stop stop-opacity="1" stop-color="rgb(36.018372%, 65.727234%, 87.969971%)" offset="0.0820312"/><stop stop-opacity="1" stop-color="rgb(35.978699%, 65.361023%, 87.886047%)" offset="0.0859375"/><stop stop-opacity="1" stop-color="rgb(35.9375%, 64.993286%, 87.802124%)" offset="0.0898438"/><stop stop-opacity="1" stop-color="rgb(35.897827%, 64.627075%, 87.718201%)" offset="0.09375"/><stop stop-opacity="1" stop-color="rgb(35.856628%, 64.259338%, 87.632751%)" offset="0.0976563"/><stop stop-opacity="1" stop-color="rgb(35.816956%, 63.893127%, 87.548828%)" offset="0.101563"/><stop stop-opacity="1" stop-color="rgb(35.775757%, 63.526917%, 87.464905%)" offset="0.105469"/><stop stop-opacity="1" stop-color="rgb(35.736084%, 63.160706%, 87.380981%)" offset="0.109375"/><stop stop-opacity="1" stop-color="rgb(35.694885%, 62.792969%, 87.297058%)" offset="0.113281"/><stop stop-opacity="1" stop-color="rgb(35.655212%, 62.426758%, 87.213135%)" offset="0.117188"/><stop stop-opacity="1" stop-color="rgb(35.614014%, 62.059021%, 87.127686%)" offset="0.121094"/><stop stop-opacity="1" stop-color="rgb(35.574341%, 61.69281%, 87.043762%)" offset="0.125"/><stop stop-opacity="1" stop-color="rgb(35.533142%, 61.325073%, 86.959839%)" offset="0.128906"/><stop stop-opacity="1" stop-color="rgb(35.493469%, 60.958862%, 86.875916%)" offset="0.132812"/><stop stop-opacity="1" stop-color="rgb(35.452271%, 60.591125%, 86.791992%)" offset="0.136719"/><stop stop-opacity="1" stop-color="rgb(35.411072%, 60.224915%, 86.708069%)" offset="0.140625"/><stop stop-opacity="1" stop-color="rgb(35.369873%, 59.857178%, 86.62262%)" offset="0.144531"/><stop stop-opacity="1" stop-color="rgb(35.3302%, 59.490967%, 86.538696%)" offset="0.148438"/><stop stop-opacity="1" stop-color="rgb(35.289001%, 59.12323%, 86.454773%)" offset="0.152344"/><stop stop-opacity="1" stop-color="rgb(35.249329%, 58.757019%, 86.37085%)" offset="0.15625"/><stop stop-opacity="1" stop-color="rgb(35.20813%, 58.389282%, 86.286926%)" offset="0.160156"/><stop stop-opacity="1" stop-color="rgb(35.168457%, 58.023071%, 86.203003%)" offset="0.164062"/><stop stop-opacity="1" stop-color="rgb(35.127258%, 57.65686%, 86.117554%)" offset="0.167969"/><stop stop-opacity="1" stop-color="rgb(35.087585%, 57.290649%, 86.03363%)" offset="0.171875"/><stop stop-opacity="1" stop-color="rgb(35.046387%, 56.922913%, 85.949707%)" offset="0.175781"/><stop stop-opacity="1" stop-color="rgb(35.006714%, 56.556702%, 85.865784%)" offset="0.179688"/><stop stop-opacity="1" stop-color="rgb(34.965515%, 56.188965%, 85.78186%)" offset="0.183594"/><stop stop-opacity="1" stop-color="rgb(34.925842%, 55.822754%, 85.697937%)" offset="0.1875"/><stop stop-opacity="1" stop-color="rgb(34.884644%, 55.455017%, 85.612488%)" offset="0.191406"/><stop stop-opacity="1" stop-color="rgb(34.844971%, 55.088806%, 85.528564%)" offset="0.195312"/><stop stop-opacity="1" stop-color="rgb(34.803772%, 54.721069%, 85.444641%)" offset="0.199219"/><stop stop-opacity="1" stop-color="rgb(34.764099%, 54.354858%, 85.360718%)" offset="0.203125"/><stop stop-opacity="1" stop-color="rgb(34.7229%, 53.987122%, 85.276794%)" offset="0.207031"/><stop stop-opacity="1" stop-color="rgb(34.683228%, 53.620911%, 85.192871%)" offset="0.210937"/><stop stop-opacity="1" stop-color="rgb(34.642029%, 53.253174%, 85.107422%)" offset="0.214844"/><stop stop-opacity="1" stop-color="rgb(34.602356%, 52.886963%, 85.023499%)" offset="0.21875"/><stop stop-opacity="1" stop-color="rgb(34.561157%, 52.520752%, 84.939575%)" offset="0.222656"/><stop stop-opacity="1" stop-color="rgb(34.521484%, 52.154541%, 84.855652%)" offset="0.226562"/><stop stop-opacity="1" stop-color="rgb(34.480286%, 51.786804%, 84.771729%)" offset="0.230469"/><stop stop-opacity="1" stop-color="rgb(34.439087%, 51.420593%, 84.687805%)" offset="0.234375"/><stop stop-opacity="1" stop-color="rgb(34.397888%, 51.052856%, 84.603882%)" offset="0.238281"/><stop stop-opacity="1" stop-color="rgb(34.358215%, 50.686646%, 84.519958%)" offset="0.242188"/><stop stop-opacity="1" stop-color="rgb(34.317017%, 50.318909%, 84.434509%)" offset="0.246094"/><stop stop-opacity="1" stop-color="rgb(34.277344%, 49.952698%, 84.350586%)" offset="0.25"/><stop stop-opacity="1" stop-color="rgb(34.236145%, 49.584961%, 84.266663%)" offset="0.253906"/><stop stop-opacity="1" stop-color="rgb(34.196472%, 49.21875%, 84.182739%)" offset="0.257812"/><stop stop-opacity="1" stop-color="rgb(34.155273%, 48.851013%, 84.098816%)" offset="0.261719"/><stop stop-opacity="1" stop-color="rgb(34.115601%, 48.484802%, 84.014893%)" offset="0.265625"/><stop stop-opacity="1" stop-color="rgb(34.074402%, 48.117065%, 83.929443%)" offset="0.269531"/><stop stop-opacity="1" stop-color="rgb(34.034729%, 47.750854%, 83.84552%)" offset="0.273438"/><stop stop-opacity="1" stop-color="rgb(33.99353%, 47.383118%, 83.761597%)" offset="0.277344"/><stop stop-opacity="1" stop-color="rgb(33.953857%, 47.016907%, 83.677673%)" offset="0.28125"/><stop stop-opacity="1" stop-color="rgb(33.912659%, 46.650696%, 83.59375%)" offset="0.285156"/><stop stop-opacity="1" stop-color="rgb(33.872986%, 46.284485%, 83.509827%)" offset="0.289062"/><stop stop-opacity="1" stop-color="rgb(33.831787%, 45.916748%, 83.424377%)" offset="0.292969"/><stop stop-opacity="1" stop-color="rgb(33.792114%, 45.550537%, 83.340454%)" offset="0.296875"/><stop stop-opacity="1" stop-color="rgb(33.750916%, 45.1828%, 83.256531%)" offset="0.300781"/><stop stop-opacity="1" stop-color="rgb(33.711243%, 44.816589%, 83.172607%)" offset="0.304688"/><stop stop-opacity="1" stop-color="rgb(33.670044%, 44.448853%, 83.088684%)" offset="0.308594"/><stop stop-opacity="1" stop-color="rgb(33.630371%, 44.082642%, 83.004761%)" offset="0.3125"/><stop stop-opacity="1" stop-color="rgb(33.589172%, 43.714905%, 82.919312%)" offset="0.316406"/><stop stop-opacity="1" stop-color="rgb(33.5495%, 43.348694%, 82.835388%)" offset="0.320313"/><stop stop-opacity="1" stop-color="rgb(33.508301%, 42.980957%, 82.751465%)" offset="0.324219"/><stop stop-opacity="1" stop-color="rgb(33.468628%, 42.614746%, 82.667542%)" offset="0.328125"/><stop stop-opacity="1" stop-color="rgb(33.427429%, 42.247009%, 82.583618%)" offset="0.332031"/><stop stop-opacity="1" stop-color="rgb(33.38623%, 41.880798%, 82.499695%)" offset="0.335938"/><stop stop-opacity="1" stop-color="rgb(33.345032%, 41.513062%, 82.414246%)" offset="0.339844"/><stop stop-opacity="1" stop-color="rgb(33.305359%, 41.146851%, 82.330322%)" offset="0.34375"/><stop stop-opacity="1" stop-color="rgb(33.26416%, 40.78064%, 82.246399%)" offset="0.347656"/><stop stop-opacity="1" stop-color="rgb(33.224487%, 40.414429%, 82.162476%)" offset="0.351563"/><stop stop-opacity="1" stop-color="rgb(33.183289%, 40.046692%, 82.078552%)" offset="0.355469"/><stop stop-opacity="1" stop-color="rgb(33.143616%, 39.680481%, 81.994629%)" offset="0.359375"/><stop stop-opacity="1" stop-color="rgb(33.102417%, 39.312744%, 81.90918%)" offset="0.363281"/><stop stop-opacity="1" stop-color="rgb(33.062744%, 38.946533%, 81.825256%)" offset="0.367188"/><stop stop-opacity="1" stop-color="rgb(33.021545%, 38.578796%, 81.741333%)" offset="0.371094"/><stop stop-opacity="1" stop-color="rgb(32.981873%, 38.212585%, 81.65741%)" offset="0.375"/><stop stop-opacity="1" stop-color="rgb(32.940674%, 37.844849%, 81.573486%)" offset="0.378906"/><stop stop-opacity="1" stop-color="rgb(32.901001%, 37.478638%, 81.489563%)" offset="0.382813"/><stop stop-opacity="1" stop-color="rgb(32.859802%, 37.110901%, 81.404114%)" offset="0.386719"/><stop stop-opacity="1" stop-color="rgb(32.820129%, 36.74469%, 81.32019%)" offset="0.390625"/><stop stop-opacity="1" stop-color="rgb(32.778931%, 36.376953%, 81.236267%)" offset="0.394531"/><stop stop-opacity="1" stop-color="rgb(32.739258%, 36.010742%, 81.152344%)" offset="0.398438"/><stop stop-opacity="1" stop-color="rgb(32.698059%, 35.644531%, 81.06842%)" offset="0.402344"/><stop stop-opacity="1" stop-color="rgb(32.658386%, 35.27832%, 80.984497%)" offset="0.40625"/><stop stop-opacity="1" stop-color="rgb(32.617188%, 34.910583%, 80.899048%)" offset="0.410156"/><stop stop-opacity="1" stop-color="rgb(32.577515%, 34.544373%, 80.815125%)" offset="0.414063"/><stop stop-opacity="1" stop-color="rgb(32.536316%, 34.176636%, 80.731201%)" offset="0.417969"/><stop stop-opacity="1" stop-color="rgb(32.496643%, 33.810425%, 80.647278%)" offset="0.421875"/><stop stop-opacity="1" stop-color="rgb(32.455444%, 33.442688%, 80.563354%)" offset="0.425781"/><stop stop-opacity="1" stop-color="rgb(32.414246%, 33.076477%, 80.479431%)" offset="0.429688"/><stop stop-opacity="1" stop-color="rgb(32.373047%, 32.70874%, 80.393982%)" offset="0.433594"/><stop stop-opacity="1" stop-color="rgb(32.333374%, 32.342529%, 80.310059%)" offset="0.4375"/><stop stop-opacity="1" stop-color="rgb(32.292175%, 31.974792%, 80.226135%)" offset="0.441406"/><stop stop-opacity="1" stop-color="rgb(32.252502%, 31.608582%, 80.142212%)" offset="0.445312"/><stop stop-opacity="1" stop-color="rgb(32.211304%, 31.240845%, 80.058289%)" offset="0.449219"/><stop stop-opacity="1" stop-color="rgb(32.171631%, 30.874634%, 79.974365%)" offset="0.453125"/><stop stop-opacity="1" stop-color="rgb(32.130432%, 30.506897%, 79.888916%)" offset="0.457031"/><stop stop-opacity="1" stop-color="rgb(32.090759%, 30.140686%, 79.804993%)" offset="0.460938"/><stop stop-opacity="1" stop-color="rgb(32.049561%, 29.774475%, 79.721069%)" offset="0.464844"/><stop stop-opacity="1" stop-color="rgb(32.009888%, 29.408264%, 79.637146%)" offset="0.46875"/><stop stop-opacity="1" stop-color="rgb(31.968689%, 29.040527%, 79.553223%)" offset="0.472656"/><stop stop-opacity="1" stop-color="rgb(31.929016%, 28.674316%, 79.469299%)" offset="0.476562"/><stop stop-opacity="1" stop-color="rgb(31.887817%, 28.30658%, 79.38385%)" offset="0.480469"/><stop stop-opacity="1" stop-color="rgb(31.848145%, 27.940369%, 79.299927%)" offset="0.484375"/><stop stop-opacity="1" stop-color="rgb(31.840515%, 27.662659%, 79.222107%)" offset="0.488281"/><stop stop-opacity="1" stop-color="rgb(31.834412%, 27.386475%, 79.144287%)" offset="0.492187"/><stop stop-opacity="1" stop-color="rgb(31.878662%, 27.244568%, 79.075623%)" offset="0.5"/><stop stop-opacity="1" stop-color="rgb(31.967163%, 26.96228%, 78.938293%)" offset="0.507812"/><stop stop-opacity="1" stop-color="rgb(32.055664%, 26.679993%, 78.800964%)" offset="0.515625"/><stop stop-opacity="1" stop-color="rgb(32.144165%, 26.397705%, 78.663635%)" offset="0.523437"/><stop stop-opacity="1" stop-color="rgb(32.232666%, 26.115417%, 78.526306%)" offset="0.53125"/><stop stop-opacity="1" stop-color="rgb(32.321167%, 25.83313%, 78.388977%)" offset="0.539062"/><stop stop-opacity="1" stop-color="rgb(32.409668%, 25.550842%, 78.251648%)" offset="0.546875"/><stop stop-opacity="1" stop-color="rgb(32.498169%, 25.268555%, 78.114319%)" offset="0.554688"/><stop stop-opacity="1" stop-color="rgb(32.58667%, 24.986267%, 77.97699%)" offset="0.5625"/><stop stop-opacity="1" stop-color="rgb(32.675171%, 24.703979%, 77.839661%)" offset="0.570312"/><stop stop-opacity="1" stop-color="rgb(32.763672%, 24.421692%, 77.702332%)" offset="0.578125"/><stop stop-opacity="1" stop-color="rgb(32.852173%, 24.139404%, 77.565002%)" offset="0.585938"/><stop stop-opacity="1" stop-color="rgb(32.940674%, 23.857117%, 77.427673%)" offset="0.59375"/><stop stop-opacity="1" stop-color="rgb(33.029175%, 23.574829%, 77.290344%)" offset="0.601562"/><stop stop-opacity="1" stop-color="rgb(33.117676%, 23.292542%, 77.153015%)" offset="0.609375"/><stop stop-opacity="1" stop-color="rgb(33.206177%, 23.010254%, 77.015686%)" offset="0.617188"/><stop stop-opacity="1" stop-color="rgb(33.294678%, 22.727966%, 76.878357%)" offset="0.625"/><stop stop-opacity="1" stop-color="rgb(33.383179%, 22.445679%, 76.741028%)" offset="0.632812"/><stop stop-opacity="1" stop-color="rgb(33.47168%, 22.163391%, 76.603699%)" offset="0.640625"/><stop stop-opacity="1" stop-color="rgb(33.560181%, 21.881104%, 76.46637%)" offset="0.648438"/><stop stop-opacity="1" stop-color="rgb(33.648682%, 21.598816%, 76.329041%)" offset="0.65625"/><stop stop-opacity="1" stop-color="rgb(33.737183%, 21.316528%, 76.191711%)" offset="0.664063"/><stop stop-opacity="1" stop-color="rgb(33.825684%, 21.034241%, 76.054382%)" offset="0.671875"/><stop stop-opacity="1" stop-color="rgb(33.914185%, 20.751953%, 75.917053%)" offset="0.679688"/><stop stop-opacity="1" stop-color="rgb(34.002686%, 20.469666%, 75.779724%)" offset="0.6875"/><stop stop-opacity="1" stop-color="rgb(34.091187%, 20.187378%, 75.642395%)" offset="0.695312"/><stop stop-opacity="1" stop-color="rgb(34.179688%, 19.90509%, 75.505066%)" offset="0.703125"/><stop stop-opacity="1" stop-color="rgb(34.268188%, 19.622803%, 75.367737%)" offset="0.710938"/><stop stop-opacity="1" stop-color="rgb(34.356689%, 19.340515%, 75.230408%)" offset="0.71875"/><stop stop-opacity="1" stop-color="rgb(34.44519%, 19.058228%, 75.093079%)" offset="0.726562"/><stop stop-opacity="1" stop-color="rgb(34.533691%, 18.77594%, 74.95575%)" offset="0.734375"/><stop stop-opacity="1" stop-color="rgb(34.622192%, 18.493652%, 74.81842%)" offset="0.742187"/><stop stop-opacity="1" stop-color="rgb(34.710693%, 18.211365%, 74.681091%)" offset="0.75"/><stop stop-opacity="1" stop-color="rgb(34.799194%, 17.929077%, 74.543762%)" offset="0.757812"/><stop stop-opacity="1" stop-color="rgb(34.887695%, 17.64679%, 74.406433%)" offset="0.765625"/><stop stop-opacity="1" stop-color="rgb(34.976196%, 17.364502%, 74.269104%)" offset="0.773438"/><stop stop-opacity="1" stop-color="rgb(35.064697%, 17.082214%, 74.131775%)" offset="0.78125"/><stop stop-opacity="1" stop-color="rgb(35.153198%, 16.799927%, 73.994446%)" offset="0.789062"/><stop stop-opacity="1" stop-color="rgb(35.241699%, 16.517639%, 73.857117%)" offset="0.796875"/><stop stop-opacity="1" stop-color="rgb(35.3302%, 16.235352%, 73.719788%)" offset="0.804688"/><stop stop-opacity="1" stop-color="rgb(35.418701%, 15.953064%, 73.582458%)" offset="0.8125"/><stop stop-opacity="1" stop-color="rgb(35.507202%, 15.670776%, 73.445129%)" offset="0.820312"/><stop stop-opacity="1" stop-color="rgb(35.595703%, 15.388489%, 73.3078%)" offset="0.828125"/><stop stop-opacity="1" stop-color="rgb(35.684204%, 15.106201%, 73.170471%)" offset="0.835937"/><stop stop-opacity="1" stop-color="rgb(35.772705%, 14.823914%, 73.033142%)" offset="0.84375"/><stop stop-opacity="1" stop-color="rgb(35.861206%, 14.541626%, 72.895813%)" offset="0.851562"/><stop stop-opacity="1" stop-color="rgb(35.949707%, 14.259338%, 72.758484%)" offset="0.859375"/><stop stop-opacity="1" stop-color="rgb(36.038208%, 13.977051%, 72.621155%)" offset="0.867187"/><stop stop-opacity="1" stop-color="rgb(36.126709%, 13.694763%, 72.483826%)" offset="0.875"/><stop stop-opacity="1" stop-color="rgb(36.21521%, 13.412476%, 72.346497%)" offset="0.882812"/><stop stop-opacity="1" stop-color="rgb(36.303711%, 13.130188%, 72.209167%)" offset="0.890625"/><stop stop-opacity="1" stop-color="rgb(36.392212%, 12.8479%, 72.071838%)" offset="0.898437"/><stop stop-opacity="1" stop-color="rgb(36.480713%, 12.565613%, 71.934509%)" offset="0.90625"/><stop stop-opacity="1" stop-color="rgb(36.569214%, 12.283325%, 71.79718%)" offset="0.914062"/><stop stop-opacity="1" stop-color="rgb(36.657715%, 12.001038%, 71.659851%)" offset="0.921875"/><stop stop-opacity="1" stop-color="rgb(36.746216%, 11.71875%, 71.522522%)" offset="0.929687"/><stop stop-opacity="1" stop-color="rgb(36.834717%, 11.436462%, 71.385193%)" offset="0.9375"/><stop stop-opacity="1" stop-color="rgb(36.923218%, 11.154175%, 71.247864%)" offset="0.945312"/><stop stop-opacity="1" stop-color="rgb(37.011719%, 10.871887%, 71.110535%)" offset="0.953125"/><stop stop-opacity="1" stop-color="rgb(37.10022%, 10.5896%, 70.973206%)" offset="0.960938"/><stop stop-opacity="1" stop-color="rgb(37.188721%, 10.307312%, 70.835876%)" offset="0.96875"/><stop stop-opacity="1" stop-color="rgb(37.277222%, 10.025024%, 70.698547%)" offset="0.976562"/><stop stop-opacity="1" stop-color="rgb(37.365723%, 9.742737%, 70.561218%)" offset="0.984375"/><stop stop-opacity="1" stop-color="rgb(37.454224%, 9.460449%, 70.423889%)" offset="0.992188"/><stop stop-opacity="1" stop-color="rgb(37.542725%, 9.178162%, 70.28656%)" offset="1"/></linearGradient></defs><rect x="-76.8" width="921.6" fill="#ffffff" y="-76.799999" height="921.599993" fill-opacity="1"/><rect x="-76.8" width="921.6" fill="#ffffff" y="-76.799999" height="921.599993" fill-opacity="1"/><rect x="-76.8" width="921.6" fill="#fffafa" y="-76.799999" height="921.599993" fill-opacity="1"/><g clip-path="url(#18863befb3)"><path fill="#4082e7" d="M 517.566406 215.019531 L 414.453125 317.964844 L 344.058594 247.183594 L 178.195312 393.035156 L 341.972656 289.113281 L 411.175781 364.050781 L 535.1875 231.984375 Z M 517.566406 215.019531 " fill-opacity="1" fill-rule="nonzero"/></g><g clip-path="url(#9064863aa4)"><path fill="#4082e7" d="M 428.46875 231.984375 L 551.179688 188.773438 L 544.375 222.128906 Z M 428.46875 231.984375 " fill-opacity="1" fill-rule="nonzero"/></g><g clip-path="url(#06479f103d)"><path fill="#4082e7" d="M 537.625 307.21875 L 517.566406 205.574219 L 551.125 188.285156 Z M 537.625 307.21875 " fill-opacity="1" fill-rule="nonzero"/></g><g clip-path="url(#2c3eb24b5a)"><g clip-path="url(#b801404cdc)"><path fill="url(#b4b33742f4)" d="M 601.464844 188.285156 L 601.464844 627.773438 L 163.972656 627.773438 L 163.972656 188.285156 Z M 601.464844 188.285156 " fill-rule="nonzero"/></g></g></svg>