<svg xmlns="http://www.w3.org/2000/svg" xmlns:xlink="http://www.w3.org/1999/xlink" width="1024" zoomAndPan="magnify" viewBox="0 0 768 767.999994" height="1024" preserveAspectRatio="xMidYMid meet" version="1.0"><defs><clipPath id="41b0e6c00e"><path d="M 127.472656 140.167969 L 614.972656 140.167969 L 614.972656 627.667969 L 127.472656 627.667969 Z M 127.472656 140.167969 " clip-rule="nonzero"/></clipPath><clipPath id="20f40a1ffa"><path d="M 346.476562 618.917969 L 395.632812 618.917969 L 395.632812 564.179688 C 395.632812 562.078125 397.15625 560.289062 399.238281 559.960938 C 411.367188 558.035156 423.3125 554.835938 434.765625 550.460938 C 436.726562 549.707031 438.941406 550.492188 439.988281 552.3125 L 467.359375 599.699219 L 509.921875 575.125 L 482.535156 527.695312 C 481.488281 525.875 481.910156 523.566406 483.535156 522.238281 C 493.054688 514.5 501.804688 505.753906 509.53125 496.242188 C 510.859375 494.613281 513.171875 494.1875 514.988281 495.238281 L 562.421875 522.621094 L 587.007812 480.054688 L 539.609375 452.6875 C 537.78125 451.636719 537 449.421875 537.746094 447.460938 C 542.132812 435.992188 545.328125 424.042969 547.253906 411.941406 C 547.582031 409.859375 549.371094 408.332031 551.472656 408.332031 L 606.21875 408.332031 L 606.21875 359.179688 L 551.488281 359.179688 C 549.382812 359.179688 547.589844 357.652344 547.253906 355.578125 C 545.332031 343.449219 542.132812 331.496094 537.757812 320.046875 C 537.011719 318.085938 537.789062 315.867188 539.617188 314.820312 L 587.007812 287.457031 L 562.421875 244.890625 L 514.988281 272.277344 C 513.175781 273.324219 510.855469 272.898438 509.542969 271.269531 C 501.796875 261.753906 493.054688 253.007812 483.535156 245.277344 C 481.910156 243.949219 481.484375 241.640625 482.53125 239.820312 L 509.921875 192.386719 L 467.359375 167.8125 L 439.988281 215.207031 C 438.933594 217.027344 436.714844 217.816406 434.753906 217.066406 C 423.289062 212.679688 411.339844 209.484375 399.238281 207.5625 C 397.15625 207.234375 395.632812 205.441406 395.632812 203.339844 L 395.632812 148.59375 L 346.476562 148.59375 L 346.476562 203.339844 C 346.476562 205.441406 344.949219 207.234375 342.867188 207.5625 C 330.753906 209.484375 318.804688 212.679688 307.347656 217.0625 C 305.390625 217.808594 303.171875 217.023438 302.117188 215.207031 L 274.765625 167.8125 L 232.1875 192.386719 L 259.578125 239.820312 C 260.621094 241.640625 260.195312 243.953125 258.570312 245.277344 C 249.050781 253.015625 240.300781 261.761719 232.574219 271.273438 C 231.25 272.898438 228.933594 273.328125 227.117188 272.277344 L 179.6875 244.890625 L 155.117188 287.457031 L 202.5 314.820312 C 204.328125 315.871094 205.105469 318.089844 204.359375 320.050781 C 199.976562 331.519531 196.777344 343.46875 194.851562 355.574219 C 194.53125 357.652344 192.734375 359.179688 190.632812 359.179688 L 135.898438 359.179688 L 135.898438 408.332031 L 190.636719 408.332031 C 192.734375 408.332031 194.519531 409.863281 194.851562 411.9375 C 196.78125 424.058594 199.972656 436.015625 204.347656 447.464844 C 205.105469 449.425781 204.316406 451.644531 202.5 452.695312 L 155.117188 480.054688 L 179.6875 522.621094 L 227.121094 495.238281 C 228.933594 494.183594 231.25 494.613281 232.574219 496.242188 C 240.3125 505.757812 249.0625 514.503906 258.570312 522.238281 C 260.199219 523.5625 260.621094 525.875 259.574219 527.691406 L 232.1875 575.125 L 274.765625 599.699219 L 302.121094 552.300781 C 303.175781 550.484375 305.390625 549.699219 307.347656 550.449219 C 318.820312 554.832031 330.765625 558.03125 342.867188 559.953125 C 344.949219 560.28125 346.472656 562.070312 346.472656 564.175781 Z M 371.0625 258.90625 C 302.21875 258.90625 246.203125 314.914062 246.203125 383.757812 C 246.207031 452.601562 302.21875 508.609375 371.058594 508.609375 C 439.902344 508.609375 495.902344 452.601562 495.902344 383.757812 C 495.902344 314.914062 439.898438 258.90625 371.0625 258.90625 Z M 371.0625 517.15625 C 297.496094 517.15625 237.652344 457.316406 237.652344 383.757812 C 237.652344 310.199219 297.496094 250.355469 371.058594 250.355469 C 444.613281 250.355469 504.453125 310.199219 504.453125 383.757812 C 504.457031 457.316406 444.609375 517.160156 371.058594 517.160156 Z M 399.90625 627.46875 L 342.203125 627.46875 C 339.839844 627.46875 337.921875 625.554688 337.921875 623.195312 L 337.925781 567.785156 C 327.671875 565.949219 317.539062 563.242188 307.714844 559.707031 L 280.03125 607.679688 C 279.457031 608.660156 278.523438 609.378906 277.433594 609.671875 C 276.332031 609.964844 275.160156 609.8125 274.179688 609.246094 L 224.214844 580.394531 C 222.167969 579.210938 221.460938 576.597656 222.640625 574.554688 L 250.371094 526.542969 C 242.417969 519.8125 235 512.402344 228.265625 504.449219 L 180.253906 532.164062 C 178.222656 533.347656 175.601562 532.644531 174.421875 530.601562 L 145.574219 480.628906 C 144.382812 478.582031 145.082031 475.96875 147.128906 474.789062 L 195.101562 447.09375 C 191.570312 437.285156 188.851562 427.15625 187.011719 416.886719 L 131.625 416.882812 C 129.25 416.882812 127.347656 414.972656 127.347656 412.609375 L 127.347656 354.90625 C 127.347656 352.542969 129.25 350.628906 131.621094 350.628906 L 187.015625 350.628906 C 188.851562 340.371094 191.566406 330.242188 195.097656 320.421875 L 147.132812 292.726562 C 145.082031 291.546875 144.382812 288.933594 145.574219 286.886719 L 174.421875 236.914062 C 175.605469 234.867188 178.21875 234.167969 180.253906 235.351562 L 228.269531 263.066406 C 235.003906 255.117188 242.40625 247.707031 250.367188 240.976562 L 222.640625 192.960938 C 221.464844 190.917969 222.164062 188.304688 224.210938 187.121094 L 274.183594 158.269531 C 275.175781 157.703125 276.332031 157.550781 277.433594 157.84375 C 278.527344 158.136719 279.457031 158.855469 280.027344 159.835938 L 307.71875 207.804688 C 317.527344 204.273438 327.65625 201.5625 337.921875 199.726562 L 337.925781 144.320312 C 337.925781 141.957031 339.839844 140.042969 342.199219 140.042969 L 399.90625 140.042969 C 402.265625 140.042969 404.179688 141.957031 404.179688 144.320312 L 404.183594 199.726562 C 414.4375 201.5625 424.566406 204.273438 434.386719 207.808594 L 462.089844 159.832031 C 462.652344 158.851562 463.582031 158.136719 464.683594 157.84375 C 465.777344 157.546875 466.945312 157.703125 467.925781 158.269531 L 517.894531 187.121094 C 519.941406 188.300781 520.644531 190.917969 519.464844 192.964844 L 491.738281 240.972656 C 499.703125 247.703125 507.105469 255.113281 513.839844 263.066406 L 561.855469 235.347656 C 563.886719 234.167969 566.503906 234.871094 567.683594 236.914062 L 596.546875 286.886719 C 597.113281 287.867188 597.265625 289.035156 596.96875 290.132812 C 596.679688 291.226562 595.953125 292.160156 594.972656 292.726562 L 547.007812 320.417969 C 550.542969 330.222656 553.253906 340.355469 555.09375 350.628906 L 610.496094 350.628906 C 612.859375 350.628906 614.769531 352.542969 614.769531 354.90625 L 614.773438 412.609375 C 614.773438 414.96875 612.855469 416.886719 610.496094 416.886719 L 555.082031 416.882812 C 553.246094 427.140625 550.539062 437.273438 547.007812 447.089844 L 594.976562 474.785156 C 595.953125 475.355469 596.675781 476.289062 596.96875 477.382812 C 597.265625 478.476562 597.113281 479.648438 596.542969 480.628906 L 567.6875 530.597656 C 566.503906 532.644531 563.886719 533.347656 561.851562 532.164062 L 513.839844 504.445312 C 507.105469 512.402344 499.699219 519.8125 491.738281 526.542969 L 519.46875 574.550781 C 520.035156 575.53125 520.1875 576.703125 519.886719 577.796875 C 519.597656 578.890625 518.882812 579.828125 517.894531 580.394531 L 467.925781 609.246094 C 466.945312 609.8125 465.777344 609.96875 464.683594 609.671875 C 463.582031 609.378906 462.644531 608.664062 462.089844 607.679688 L 434.394531 559.71875 C 424.582031 563.246094 414.457031 565.957031 404.179688 567.796875 L 404.183594 623.191406 C 404.183594 625.554688 402.265625 627.46875 399.90625 627.46875 Z M 399.90625 627.46875 " clip-rule="evenodd"/></clipPath><linearGradient x1="-5.561711" gradientTransform="matrix(3.184193, 0, 0, 3.184193, 94.994761, 107.689899)" y1="51.423646" x2="179.006991" gradientUnits="userSpaceOnUse" y2="121.992813" id="7ffc41f94e"><stop stop-opacity="1" stop-color="rgb(37.599182%, 8.198547%, 69.799805%)" offset="0"/><stop stop-opacity="1" stop-color="rgb(37.590027%, 8.229065%, 69.813538%)" offset="0.03125"/><stop stop-opacity="1" stop-color="rgb(37.532043%, 8.4198%, 69.906616%)" offset="0.0390625"/><stop stop-opacity="1" stop-color="rgb(37.435913%, 8.738708%, 70.062256%)" offset="0.046875"/><stop stop-opacity="1" stop-color="rgb(37.339783%, 9.059143%, 70.217896%)" offset="0.0546875"/><stop stop-opacity="1" stop-color="rgb(37.243652%, 9.378052%, 70.373535%)" offset="0.0625"/><stop stop-opacity="1" stop-color="rgb(37.147522%, 9.69696%, 70.529175%)" offset="0.0703125"/><stop stop-opacity="1" stop-color="rgb(37.051392%, 10.017395%, 70.684814%)" offset="0.078125"/><stop stop-opacity="1" stop-color="rgb(36.956787%, 10.336304%, 70.840454%)" offset="0.0859375"/><stop stop-opacity="1" stop-color="rgb(36.860657%, 10.656738%, 70.996094%)" offset="0.09375"/><stop stop-opacity="1" stop-color="rgb(36.764526%, 10.975647%, 71.151733%)" offset="0.101562"/><stop stop-opacity="1" stop-color="rgb(36.668396%, 11.294556%, 71.307373%)" offset="0.109375"/><stop stop-opacity="1" stop-color="rgb(36.572266%, 11.61499%, 71.463013%)" offset="0.117187"/><stop stop-opacity="1" stop-color="rgb(36.476135%, 11.933899%, 71.618652%)" offset="0.125"/><stop stop-opacity="1" stop-color="rgb(36.380005%, 12.252808%, 71.774292%)" offset="0.132812"/><stop stop-opacity="1" stop-color="rgb(36.283875%, 12.573242%, 71.929932%)" offset="0.140625"/><stop stop-opacity="1" stop-color="rgb(36.187744%, 12.892151%, 72.085571%)" offset="0.148437"/><stop stop-opacity="1" stop-color="rgb(36.091614%, 13.21106%, 72.241211%)" offset="0.15625"/><stop stop-opacity="1" stop-color="rgb(35.995483%, 13.531494%, 72.396851%)" offset="0.164062"/><stop stop-opacity="1" stop-color="rgb(35.899353%, 13.850403%, 72.55249%)" offset="0.171875"/><stop stop-opacity="1" stop-color="rgb(35.804749%, 14.169312%, 72.70813%)" offset="0.179688"/><stop stop-opacity="1" stop-color="rgb(35.708618%, 14.489746%, 72.86377%)" offset="0.1875"/><stop stop-opacity="1" stop-color="rgb(35.612488%, 14.808655%, 73.019409%)" offset="0.195312"/><stop stop-opacity="1" stop-color="rgb(35.516357%, 15.129089%, 73.173523%)" offset="0.203125"/><stop stop-opacity="1" stop-color="rgb(35.420227%, 15.447998%, 73.329163%)" offset="0.210937"/><stop stop-opacity="1" stop-color="rgb(35.324097%, 15.766907%, 73.484802%)" offset="0.21875"/><stop stop-opacity="1" stop-color="rgb(35.227966%, 16.087341%, 73.640442%)" offset="0.226562"/><stop stop-opacity="1" stop-color="rgb(35.131836%, 16.40625%, 73.796082%)" offset="0.234375"/><stop stop-opacity="1" stop-color="rgb(35.035706%, 16.725159%, 73.951721%)" offset="0.242188"/><stop stop-opacity="1" stop-color="rgb(34.939575%, 17.045593%, 74.107361%)" offset="0.25"/><stop stop-opacity="1" stop-color="rgb(34.843445%, 17.364502%, 74.263%)" offset="0.257812"/><stop stop-opacity="1" stop-color="rgb(34.747314%, 17.683411%, 74.41864%)" offset="0.265625"/><stop stop-opacity="1" stop-color="rgb(34.65271%, 18.003845%, 74.57428%)" offset="0.273438"/><stop stop-opacity="1" stop-color="rgb(34.55658%, 18.322754%, 74.729919%)" offset="0.276593"/><stop stop-opacity="1" stop-color="rgb(34.509277%, 18.482971%, 74.807739%)" offset="0.28125"/><stop stop-opacity="1" stop-color="rgb(34.460449%, 18.641663%, 74.885559%)" offset="0.289062"/><stop stop-opacity="1" stop-color="rgb(34.364319%, 18.962097%, 75.041199%)" offset="0.296875"/><stop stop-opacity="1" stop-color="rgb(34.268188%, 19.281006%, 75.196838%)" offset="0.304688"/><stop stop-opacity="1" stop-color="rgb(34.172058%, 19.599915%, 75.352478%)" offset="0.3125"/><stop stop-opacity="1" stop-color="rgb(34.075928%, 19.920349%, 75.508118%)" offset="0.320312"/><stop stop-opacity="1" stop-color="rgb(33.979797%, 20.239258%, 75.663757%)" offset="0.328125"/><stop stop-opacity="1" stop-color="rgb(33.883667%, 20.559692%, 75.819397%)" offset="0.335938"/><stop stop-opacity="1" stop-color="rgb(33.787537%, 20.878601%, 75.975037%)" offset="0.34375"/><stop stop-opacity="1" stop-color="rgb(33.691406%, 21.19751%, 76.130676%)" offset="0.351562"/><stop stop-opacity="1" stop-color="rgb(33.596802%, 21.517944%, 76.286316%)" offset="0.359375"/><stop stop-opacity="1" stop-color="rgb(33.500671%, 21.836853%, 76.441956%)" offset="0.367188"/><stop stop-opacity="1" stop-color="rgb(33.404541%, 22.155762%, 76.597595%)" offset="0.375"/><stop stop-opacity="1" stop-color="rgb(33.308411%, 22.476196%, 76.753235%)" offset="0.382812"/><stop stop-opacity="1" stop-color="rgb(33.21228%, 22.795105%, 76.908875%)" offset="0.390625"/><stop stop-opacity="1" stop-color="rgb(33.11615%, 23.114014%, 77.064514%)" offset="0.398438"/><stop stop-opacity="1" stop-color="rgb(33.02002%, 23.434448%, 77.220154%)" offset="0.40625"/><stop stop-opacity="1" stop-color="rgb(32.923889%, 23.753357%, 77.375793%)" offset="0.414062"/><stop stop-opacity="1" stop-color="rgb(32.827759%, 24.072266%, 77.531433%)" offset="0.421875"/><stop stop-opacity="1" stop-color="rgb(32.731628%, 24.3927%, 77.685547%)" offset="0.429688"/><stop stop-opacity="1" stop-color="rgb(32.635498%, 24.711609%, 77.841187%)" offset="0.4375"/><stop stop-opacity="1" stop-color="rgb(32.539368%, 25.032043%, 77.996826%)" offset="0.445312"/><stop stop-opacity="1" stop-color="rgb(32.444763%, 25.350952%, 78.152466%)" offset="0.453125"/><stop stop-opacity="1" stop-color="rgb(32.348633%, 25.669861%, 78.308105%)" offset="0.460938"/><stop stop-opacity="1" stop-color="rgb(32.252502%, 25.990295%, 78.463745%)" offset="0.46875"/><stop stop-opacity="1" stop-color="rgb(32.156372%, 26.309204%, 78.619385%)" offset="0.476562"/><stop stop-opacity="1" stop-color="rgb(32.060242%, 26.628113%, 78.775024%)" offset="0.484375"/><stop stop-opacity="1" stop-color="rgb(31.964111%, 26.948547%, 78.930664%)" offset="0.492187"/><stop stop-opacity="1" stop-color="rgb(31.867981%, 27.267456%, 79.086304%)" offset="0.5"/><stop stop-opacity="1" stop-color="rgb(31.750488%, 27.656555%, 79.272461%)" offset="0.503906"/><stop stop-opacity="1" stop-color="rgb(31.681824%, 27.885437%, 79.382324%)" offset="0.507812"/><stop stop-opacity="1" stop-color="rgb(31.60553%, 28.134155%, 79.499817%)" offset="0.511719"/><stop stop-opacity="1" stop-color="rgb(31.529236%, 28.382874%, 79.61731%)" offset="0.515625"/><stop stop-opacity="1" stop-color="rgb(31.452942%, 28.630066%, 79.734802%)" offset="0.519531"/><stop stop-opacity="1" stop-color="rgb(31.378174%, 28.878784%, 79.852295%)" offset="0.523438"/><stop stop-opacity="1" stop-color="rgb(31.30188%, 29.127502%, 79.969788%)" offset="0.527344"/><stop stop-opacity="1" stop-color="rgb(31.225586%, 29.376221%, 80.08728%)" offset="0.53125"/><stop stop-opacity="1" stop-color="rgb(31.149292%, 29.624939%, 80.204773%)" offset="0.535156"/><stop stop-opacity="1" stop-color="rgb(31.074524%, 29.873657%, 80.322266%)" offset="0.539063"/><stop stop-opacity="1" stop-color="rgb(30.99823%, 30.122375%, 80.439758%)" offset="0.542969"/><stop stop-opacity="1" stop-color="rgb(30.921936%, 30.371094%, 80.558777%)" offset="0.546875"/><stop stop-opacity="1" stop-color="rgb(30.845642%, 30.619812%, 80.67627%)" offset="0.550781"/><stop stop-opacity="1" stop-color="rgb(30.770874%, 30.86853%, 80.793762%)" offset="0.554688"/><stop stop-opacity="1" stop-color="rgb(30.69458%, 31.117249%, 80.911255%)" offset="0.558594"/><stop stop-opacity="1" stop-color="rgb(30.618286%, 31.365967%, 81.028748%)" offset="0.5625"/><stop stop-opacity="1" stop-color="rgb(30.541992%, 31.614685%, 81.14624%)" offset="0.566406"/><stop stop-opacity="1" stop-color="rgb(30.467224%, 31.863403%, 81.263733%)" offset="0.570313"/><stop stop-opacity="1" stop-color="rgb(30.39093%, 32.110596%, 81.381226%)" offset="0.574219"/><stop stop-opacity="1" stop-color="rgb(30.314636%, 32.359314%, 81.498718%)" offset="0.578125"/><stop stop-opacity="1" stop-color="rgb(30.238342%, 32.608032%, 81.616211%)" offset="0.582031"/><stop stop-opacity="1" stop-color="rgb(30.163574%, 32.85675%, 81.733704%)" offset="0.585938"/><stop stop-opacity="1" stop-color="rgb(30.08728%, 33.105469%, 81.851196%)" offset="0.589844"/><stop stop-opacity="1" stop-color="rgb(30.010986%, 33.354187%, 81.970215%)" offset="0.59375"/><stop stop-opacity="1" stop-color="rgb(29.934692%, 33.602905%, 82.087708%)" offset="0.597656"/><stop stop-opacity="1" stop-color="rgb(29.859924%, 33.851624%, 82.2052%)" offset="0.601562"/><stop stop-opacity="1" stop-color="rgb(29.78363%, 34.100342%, 82.322693%)" offset="0.605469"/><stop stop-opacity="1" stop-color="rgb(29.707336%, 34.34906%, 82.440186%)" offset="0.609375"/><stop stop-opacity="1" stop-color="rgb(29.631042%, 34.597778%, 82.557678%)" offset="0.613281"/><stop stop-opacity="1" stop-color="rgb(29.556274%, 34.846497%, 82.675171%)" offset="0.617187"/><stop stop-opacity="1" stop-color="rgb(29.47998%, 35.095215%, 82.792664%)" offset="0.621094"/><stop stop-opacity="1" stop-color="rgb(29.403687%, 35.343933%, 82.910156%)" offset="0.625"/><stop stop-opacity="1" stop-color="rgb(29.327393%, 35.591125%, 83.027649%)" offset="0.628906"/><stop stop-opacity="1" stop-color="rgb(29.252625%, 35.839844%, 83.145142%)" offset="0.632812"/><stop stop-opacity="1" stop-color="rgb(29.176331%, 36.088562%, 83.262634%)" offset="0.636719"/><stop stop-opacity="1" stop-color="rgb(29.100037%, 36.33728%, 83.381653%)" offset="0.640625"/><stop stop-opacity="1" stop-color="rgb(29.023743%, 36.585999%, 83.499146%)" offset="0.644531"/><stop stop-opacity="1" stop-color="rgb(28.948975%, 36.834717%, 83.616638%)" offset="0.648437"/><stop stop-opacity="1" stop-color="rgb(28.872681%, 37.083435%, 83.734131%)" offset="0.652344"/><stop stop-opacity="1" stop-color="rgb(28.796387%, 37.332153%, 83.851624%)" offset="0.65625"/><stop stop-opacity="1" stop-color="rgb(28.720093%, 37.580872%, 83.969116%)" offset="0.660156"/><stop stop-opacity="1" stop-color="rgb(28.645325%, 37.82959%, 84.086609%)" offset="0.664062"/><stop stop-opacity="1" stop-color="rgb(28.569031%, 38.078308%, 84.204102%)" offset="0.667969"/><stop stop-opacity="1" stop-color="rgb(28.492737%, 38.327026%, 84.321594%)" offset="0.671875"/><stop stop-opacity="1" stop-color="rgb(28.416443%, 38.574219%, 84.439087%)" offset="0.675781"/><stop stop-opacity="1" stop-color="rgb(28.341675%, 38.822937%, 84.558105%)" offset="0.679688"/><stop stop-opacity="1" stop-color="rgb(28.265381%, 39.071655%, 84.675598%)" offset="0.683594"/><stop stop-opacity="1" stop-color="rgb(28.189087%, 39.320374%, 84.793091%)" offset="0.6875"/><stop stop-opacity="1" stop-color="rgb(28.112793%, 39.569092%, 84.910583%)" offset="0.691406"/><stop stop-opacity="1" stop-color="rgb(28.038025%, 39.81781%, 85.028076%)" offset="0.695312"/><stop stop-opacity="1" stop-color="rgb(27.961731%, 40.066528%, 85.145569%)" offset="0.699219"/><stop stop-opacity="1" stop-color="rgb(27.885437%, 40.315247%, 85.263062%)" offset="0.703125"/><stop stop-opacity="1" stop-color="rgb(27.809143%, 40.563965%, 85.380554%)" offset="0.707031"/><stop stop-opacity="1" stop-color="rgb(27.734375%, 40.812683%, 85.498047%)" offset="0.710938"/><stop stop-opacity="1" stop-color="rgb(27.658081%, 41.061401%, 85.61554%)" offset="0.714844"/><stop stop-opacity="1" stop-color="rgb(27.581787%, 41.31012%, 85.733032%)" offset="0.71875"/><stop stop-opacity="1" stop-color="rgb(27.505493%, 41.558838%, 85.850525%)" offset="0.722656"/><stop stop-opacity="1" stop-color="rgb(27.430725%, 41.807556%, 85.969543%)" offset="0.726563"/><stop stop-opacity="1" stop-color="rgb(27.354431%, 42.054749%, 86.087036%)" offset="0.730469"/><stop stop-opacity="1" stop-color="rgb(27.278137%, 42.303467%, 86.204529%)" offset="0.734375"/><stop stop-opacity="1" stop-color="rgb(27.201843%, 42.552185%, 86.322021%)" offset="0.738281"/><stop stop-opacity="1" stop-color="rgb(27.127075%, 42.800903%, 86.439514%)" offset="0.742188"/><stop stop-opacity="1" stop-color="rgb(27.050781%, 43.049622%, 86.557007%)" offset="0.746094"/><stop stop-opacity="1" stop-color="rgb(26.974487%, 43.29834%, 86.6745%)" offset="0.75"/><stop stop-opacity="1" stop-color="rgb(26.898193%, 43.547058%, 86.791992%)" offset="0.753906"/><stop stop-opacity="1" stop-color="rgb(26.823425%, 43.795776%, 86.909485%)" offset="0.757813"/><stop stop-opacity="1" stop-color="rgb(26.747131%, 44.044495%, 87.026978%)" offset="0.761719"/><stop stop-opacity="1" stop-color="rgb(26.670837%, 44.293213%, 87.145996%)" offset="0.765625"/><stop stop-opacity="1" stop-color="rgb(26.594543%, 44.541931%, 87.263489%)" offset="0.769531"/><stop stop-opacity="1" stop-color="rgb(26.519775%, 44.790649%, 87.380981%)" offset="0.773438"/><stop stop-opacity="1" stop-color="rgb(26.443481%, 45.039368%, 87.498474%)" offset="0.777344"/><stop stop-opacity="1" stop-color="rgb(26.367188%, 45.288086%, 87.615967%)" offset="0.78125"/><stop stop-opacity="1" stop-color="rgb(26.290894%, 45.535278%, 87.733459%)" offset="0.785156"/><stop stop-opacity="1" stop-color="rgb(26.216125%, 45.783997%, 87.850952%)" offset="0.789063"/><stop stop-opacity="1" stop-color="rgb(26.139832%, 46.032715%, 87.968445%)" offset="0.792969"/><stop stop-opacity="1" stop-color="rgb(26.063538%, 46.281433%, 88.085938%)" offset="0.796875"/><stop stop-opacity="1" stop-color="rgb(25.987244%, 46.530151%, 88.20343%)" offset="0.800781"/><stop stop-opacity="1" stop-color="rgb(25.912476%, 46.77887%, 88.320923%)" offset="0.804687"/><stop stop-opacity="1" stop-color="rgb(25.836182%, 47.027588%, 88.438416%)" offset="0.808594"/><stop stop-opacity="1" stop-color="rgb(25.759888%, 47.276306%, 88.557434%)" offset="0.8125"/><stop stop-opacity="1" stop-color="rgb(25.683594%, 47.525024%, 88.674927%)" offset="0.816406"/><stop stop-opacity="1" stop-color="rgb(25.608826%, 47.773743%, 88.792419%)" offset="0.820312"/><stop stop-opacity="1" stop-color="rgb(25.532532%, 48.022461%, 88.909912%)" offset="0.824219"/><stop stop-opacity="1" stop-color="rgb(25.456238%, 48.271179%, 89.027405%)" offset="0.828125"/><stop stop-opacity="1" stop-color="rgb(25.379944%, 48.518372%, 89.144897%)" offset="0.832031"/><stop stop-opacity="1" stop-color="rgb(25.305176%, 48.76709%, 89.26239%)" offset="0.835937"/><stop stop-opacity="1" stop-color="rgb(25.228882%, 49.015808%, 89.379883%)" offset="0.839844"/><stop stop-opacity="1" stop-color="rgb(25.152588%, 49.264526%, 89.497375%)" offset="0.84375"/><stop stop-opacity="1" stop-color="rgb(25.076294%, 49.513245%, 89.614868%)" offset="0.847656"/><stop stop-opacity="1" stop-color="rgb(25.001526%, 49.761963%, 89.732361%)" offset="0.851562"/><stop stop-opacity="1" stop-color="rgb(24.925232%, 50.010681%, 89.849854%)" offset="0.855469"/><stop stop-opacity="1" stop-color="rgb(24.848938%, 50.259399%, 89.968872%)" offset="0.859375"/><stop stop-opacity="1" stop-color="rgb(24.772644%, 50.508118%, 90.086365%)" offset="0.863281"/><stop stop-opacity="1" stop-color="rgb(24.697876%, 50.756836%, 90.203857%)" offset="0.867188"/><stop stop-opacity="1" stop-color="rgb(24.621582%, 51.005554%, 90.32135%)" offset="0.871094"/><stop stop-opacity="1" stop-color="rgb(24.545288%, 51.254272%, 90.438843%)" offset="0.875"/><stop stop-opacity="1" stop-color="rgb(24.468994%, 51.502991%, 90.556335%)" offset="0.878906"/><stop stop-opacity="1" stop-color="rgb(24.394226%, 51.751709%, 90.673828%)" offset="0.882812"/><stop stop-opacity="1" stop-color="rgb(24.317932%, 51.998901%, 90.791321%)" offset="0.886719"/><stop stop-opacity="1" stop-color="rgb(24.241638%, 52.24762%, 90.908813%)" offset="0.890625"/><stop stop-opacity="1" stop-color="rgb(24.165344%, 52.496338%, 91.026306%)" offset="0.894531"/><stop stop-opacity="1" stop-color="rgb(24.090576%, 52.745056%, 91.145325%)" offset="0.898438"/><stop stop-opacity="1" stop-color="rgb(24.014282%, 52.993774%, 91.262817%)" offset="0.902344"/><stop stop-opacity="1" stop-color="rgb(23.937988%, 53.242493%, 91.38031%)" offset="0.90625"/><stop stop-opacity="1" stop-color="rgb(23.861694%, 53.491211%, 91.497803%)" offset="0.910156"/><stop stop-opacity="1" stop-color="rgb(23.7854%, 53.739929%, 91.615295%)" offset="0.914063"/><stop stop-opacity="1" stop-color="rgb(23.709106%, 53.988647%, 91.732788%)" offset="0.917969"/><stop stop-opacity="1" stop-color="rgb(23.634338%, 54.237366%, 91.850281%)" offset="0.921875"/><stop stop-opacity="1" stop-color="rgb(23.558044%, 54.486084%, 91.967773%)" offset="0.925781"/><stop stop-opacity="1" stop-color="rgb(23.48175%, 54.734802%, 92.085266%)" offset="0.929688"/><stop stop-opacity="1" stop-color="rgb(23.405457%, 54.983521%, 92.202759%)" offset="0.933594"/><stop stop-opacity="1" stop-color="rgb(23.330688%, 55.232239%, 92.320251%)" offset="0.9375"/><stop stop-opacity="1" stop-color="rgb(23.254395%, 55.479431%, 92.437744%)" offset="0.941406"/><stop stop-opacity="1" stop-color="rgb(23.178101%, 55.728149%, 92.556763%)" offset="0.945313"/><stop stop-opacity="1" stop-color="rgb(23.101807%, 55.976868%, 92.674255%)" offset="0.949219"/><stop stop-opacity="1" stop-color="rgb(23.027039%, 56.225586%, 92.791748%)" offset="0.953125"/><stop stop-opacity="1" stop-color="rgb(22.950745%, 56.474304%, 92.909241%)" offset="0.957031"/><stop stop-opacity="1" stop-color="rgb(22.874451%, 56.723022%, 93.026733%)" offset="0.960938"/><stop stop-opacity="1" stop-color="rgb(22.798157%, 56.971741%, 93.144226%)" offset="0.964844"/><stop stop-opacity="1" stop-color="rgb(22.723389%, 57.220459%, 93.261719%)" offset="0.96875"/><stop stop-opacity="1" stop-color="rgb(22.711182%, 57.260132%, 93.280029%)" offset="1"/></linearGradient></defs><rect x="-76.8" width="921.6" fill="#ffffff" y="-76.799999" height="921.599993" fill-opacity="1"/><rect x="-76.8" width="921.6" fill="#fffafa" y="-76.799999" height="921.599993" fill-opacity="1"/><g clip-path="url(#41b0e6c00e)"><g clip-path="url(#20f40a1ffa)"><path fill="url(#7ffc41f94e)" d="M 127.472656 140.167969 L 127.472656 627.46875 L 614.773438 627.46875 L 614.773438 140.167969 Z M 127.472656 140.167969 " fill-rule="nonzero"/></g></g></svg>