<svg xmlns="http://www.w3.org/2000/svg" xmlns:xlink="http://www.w3.org/1999/xlink" width="1024" zoomAndPan="magnify" viewBox="0 0 768 767.999994" height="1024" preserveAspectRatio="xMidYMid meet" version="1.0"><defs><clipPath id="00081a1914"><path d="M 149 67.804688 L 690.863281 67.804688 L 690.863281 612.304688 L 149 612.304688 Z M 149 67.804688 " clip-rule="nonzero"/></clipPath><clipPath id="382bd094a9"><path d="M 149.082031 170.1875 C 149.082031 167.402344 151.347656 165.136719 154.128906 165.136719 L 362.839844 165.136719 L 362.839844 233.1875 C 362.839844 236.867188 364.917969 240.238281 368.214844 241.882812 C 371.507812 243.527344 375.449219 243.171875 378.390625 240.957031 C 384.992188 235.996094 392.851562 233.308594 401.125 233.1875 C 411.519531 233.0625 421.394531 237.035156 428.914062 244.449219 C 436.429688 251.863281 440.570312 261.671875 440.570312 272.070312 C 440.566406 293.511719 423.132812 310.953125 401.703125 310.953125 C 393.21875 310.953125 385.15625 308.265625 378.390625 303.183594 C 375.449219 300.972656 371.507812 300.613281 368.214844 302.257812 C 364.917969 303.902344 362.839844 307.269531 362.839844 310.953125 L 362.839844 379 L 310.949219 379 C 313.035156 373.089844 314.15625 366.835938 314.25 360.421875 C 314.480469 344.769531 308.496094 329.945312 297.402344 318.6875 C 286.316406 307.429688 271.597656 301.230469 255.957031 301.234375 C 223.8125 301.234375 197.664062 327.398438 197.664062 359.558594 C 197.664062 366.28125 198.785156 372.824219 200.96875 379 L 149.082031 379 Z M 520.246094 394.5625 C 525.207031 401.167969 527.890625 409.03125 528.011719 417.304688 C 528.164062 427.710938 524.164062 437.585938 516.753906 445.113281 C 509.347656 452.632812 499.542969 456.769531 489.148438 456.769531 C 467.71875 456.769531 450.285156 439.328125 450.285156 417.886719 C 450.285156 409.394531 452.96875 401.328125 458.054688 394.5625 C 460.261719 391.617188 460.621094 387.671875 458.976562 384.378906 C 457.332031 381.082031 453.964844 379 450.285156 379 L 382.269531 379 L 382.269531 327.089844 C 388.445312 329.273438 394.984375 330.394531 401.703125 330.394531 C 424.042969 330.394531 443.476562 317.753906 453.261719 299.25 L 476.203125 358.902344 C 477.125 361.308594 478.96875 363.25 481.324219 364.296875 C 483.679688 365.34375 486.355469 365.410156 488.757812 364.488281 L 546.257812 342.351562 C 546.429688 348.621094 547.625 354.859375 549.84375 360.878906 C 552.324219 367.628906 555.980469 373.730469 560.589844 379 L 528.015625 379 C 524.332031 379 520.96875 381.082031 519.320312 384.378906 C 517.675781 387.671875 518.035156 391.617188 520.246094 394.5625 Z M 460.015625 273.480469 C 460 273.476562 459.984375 273.472656 459.964844 273.46875 C 459.976562 273.003906 460 272.539062 460 272.070312 C 460 256.421875 453.804688 241.695312 442.554688 230.601562 C 437.996094 226.109375 432.847656 222.464844 427.300781 219.71875 C 427.699219 219.808594 428.101562 219.882812 428.515625 219.921875 C 432.183594 220.285156 435.730469 218.527344 437.683594 215.402344 C 442.0625 208.402344 448.433594 203.074219 456.109375 199.988281 C 465.765625 196.105469 476.414062 196.292969 486.089844 200.511719 C 495.765625 204.730469 503.148438 212.398438 506.878906 222.105469 C 514.574219 242.117188 504.5625 264.65625 484.5625 272.355469 C 476.640625 275.40625 468.152344 275.792969 460.015625 273.480469 Z M 362.839844 612.304688 L 154.128906 612.304688 C 151.347656 612.304688 149.082031 610.042969 149.082031 607.257812 L 149.082031 398.445312 L 217.09375 398.445312 C 220.777344 398.445312 224.140625 396.363281 225.789062 393.066406 C 227.433594 389.769531 227.074219 385.828125 224.863281 382.882812 C 219.78125 376.117188 217.09375 368.050781 217.09375 359.558594 C 217.09375 338.117188 234.527344 320.675781 255.960938 320.675781 C 266.355469 320.675781 276.15625 324.816406 283.5625 332.335938 C 290.976562 339.855469 294.972656 349.730469 294.820312 360.140625 C 294.699219 368.417969 292.015625 376.28125 287.058594 382.886719 C 284.847656 385.832031 284.488281 389.773438 286.132812 393.066406 C 287.78125 396.363281 291.144531 398.445312 294.824219 398.445312 L 362.839844 398.445312 L 362.839844 450.359375 C 356.929688 448.269531 350.679688 447.148438 344.269531 447.054688 C 328.652344 446.78125 313.808594 452.8125 302.554688 463.910156 C 291.304688 475.003906 285.109375 489.730469 285.109375 505.378906 C 285.109375 537.539062 311.261719 563.699219 343.40625 563.699219 C 350.125 563.699219 356.664062 562.578125 362.839844 560.394531 Z M 596.027344 607.257812 C 596.027344 610.042969 593.765625 612.304688 590.980469 612.304688 L 382.269531 612.304688 L 382.269531 544.257812 C 382.269531 540.574219 380.191406 537.207031 376.898438 535.5625 C 373.605469 533.917969 369.664062 534.273438 366.71875 536.488281 C 359.953125 541.570312 351.890625 544.257812 343.40625 544.257812 C 321.976562 544.257812 304.542969 526.816406 304.542969 505.378906 C 304.542969 494.976562 308.679688 485.167969 316.195312 477.757812 C 323.714844 470.34375 333.558594 466.382812 343.988281 466.496094 C 352.257812 466.617188 360.117188 469.300781 366.71875 474.265625 C 369.660156 476.472656 373.601562 476.832031 376.898438 475.1875 C 380.191406 473.542969 382.269531 470.175781 382.269531 466.492188 L 382.269531 398.445312 L 434.160156 398.445312 C 431.976562 404.621094 430.851562 411.164062 430.851562 417.886719 C 430.851562 450.046875 457.003906 476.210938 489.148438 476.214844 C 504.789062 476.214844 519.507812 470.015625 530.59375 458.761719 C 541.6875 447.5 547.667969 432.675781 547.441406 417.023438 C 547.347656 410.609375 546.226562 404.355469 544.136719 398.445312 L 596.027344 398.445312 Z M 626.871094 290.488281 C 623.4375 291.8125 621.042969 294.964844 620.6875 298.628906 C 620.335938 302.296875 622.085938 305.847656 625.207031 307.800781 C 632.378906 312.292969 637.78125 318.855469 640.828125 326.78125 C 648.519531 346.789062 638.511719 369.332031 618.511719 377.03125 C 608.808594 380.765625 598.171875 380.425781 588.5625 376.066406 C 578.945312 371.710938 571.667969 363.929688 568.074219 354.160156 C 565.21875 346.394531 564.902344 338.089844 567.160156 330.144531 C 568.164062 326.601562 567.082031 322.792969 564.363281 320.308594 C 562.542969 318.644531 560.195312 317.765625 557.808594 317.765625 C 556.636719 317.765625 555.457031 317.976562 554.324219 318.414062 L 490.847656 342.847656 L 472.214844 294.398438 C 478.761719 294.214844 485.269531 292.914062 491.539062 290.503906 C 521.539062 278.953125 536.554688 245.140625 525.015625 215.125 C 519.398438 200.519531 508.332031 189.003906 493.851562 182.691406 C 479.363281 176.378906 463.386719 176.113281 448.867188 181.945312 C 442.917969 184.335938 437.488281 187.628906 432.722656 191.699219 L 414.089844 143.246094 L 608.878906 68.269531 C 608.878906 68.269531 608.878906 68.269531 608.878906 68.265625 C 610.136719 67.785156 611.507812 67.816406 612.742188 68.367188 C 613.972656 68.914062 614.917969 69.910156 615.402344 71.167969 L 690.34375 266.054688 Z M 626.871094 290.488281 " clip-rule="nonzero"/></clipPath><linearGradient x1="32.000007" gradientTransform="matrix(1.214526, 0, 0, 1.215131, 110.217379, 29.04366)" y1="480.000005" x2="478.878975" gradientUnits="userSpaceOnUse" y2="33.121011" id="1f6ddd3cab"><stop stop-opacity="1" stop-color="rgb(38.798523%, 5.099487%, 68.199158%)" offset="0"/><stop stop-opacity="1" stop-color="rgb(38.711548%, 5.381775%, 68.334961%)" offset="0.00390625"/><stop stop-opacity="1" stop-color="rgb(38.624573%, 5.664062%, 68.470764%)" offset="0.0078125"/><stop stop-opacity="1" stop-color="rgb(38.490295%, 6.098938%, 68.67981%)" offset="0.0117188"/><stop stop-opacity="1" stop-color="rgb(38.357544%, 6.533813%, 68.888855%)" offset="0.015625"/><stop stop-opacity="1" stop-color="rgb(38.223267%, 6.967163%, 69.0979%)" offset="0.0195313"/><stop stop-opacity="1" stop-color="rgb(38.088989%, 7.402039%, 69.306946%)" offset="0.0234375"/><stop stop-opacity="1" stop-color="rgb(37.954712%, 7.836914%, 69.515991%)" offset="0.0273438"/><stop stop-opacity="1" stop-color="rgb(37.820435%, 8.27179%, 69.725037%)" offset="0.03125"/><stop stop-opacity="1" stop-color="rgb(37.686157%, 8.705139%, 69.934082%)" offset="0.0351562"/><stop stop-opacity="1" stop-color="rgb(37.553406%, 9.140015%, 70.143127%)" offset="0.0390625"/><stop stop-opacity="1" stop-color="rgb(37.419128%, 9.57489%, 70.350647%)" offset="0.0429688"/><stop stop-opacity="1" stop-color="rgb(37.284851%, 10.009766%, 70.559692%)" offset="0.046875"/><stop stop-opacity="1" stop-color="rgb(37.150574%, 10.443115%, 70.768738%)" offset="0.0507813"/><stop stop-opacity="1" stop-color="rgb(37.016296%, 10.877991%, 70.977783%)" offset="0.0546875"/><stop stop-opacity="1" stop-color="rgb(36.882019%, 11.312866%, 71.186829%)" offset="0.0585938"/><stop stop-opacity="1" stop-color="rgb(36.749268%, 11.747742%, 71.395874%)" offset="0.0625"/><stop stop-opacity="1" stop-color="rgb(36.61499%, 12.181091%, 71.604919%)" offset="0.0664063"/><stop stop-opacity="1" stop-color="rgb(36.480713%, 12.615967%, 71.813965%)" offset="0.0703125"/><stop stop-opacity="1" stop-color="rgb(36.346436%, 13.050842%, 72.02301%)" offset="0.0742188"/><stop stop-opacity="1" stop-color="rgb(36.212158%, 13.485718%, 72.232056%)" offset="0.078125"/><stop stop-opacity="1" stop-color="rgb(36.077881%, 13.919067%, 72.439575%)" offset="0.0820313"/><stop stop-opacity="1" stop-color="rgb(35.945129%, 14.353943%, 72.648621%)" offset="0.0859375"/><stop stop-opacity="1" stop-color="rgb(35.810852%, 14.787292%, 72.857666%)" offset="0.0898438"/><stop stop-opacity="1" stop-color="rgb(35.676575%, 15.222168%, 73.066711%)" offset="0.09375"/><stop stop-opacity="1" stop-color="rgb(35.542297%, 15.657043%, 73.275757%)" offset="0.0976563"/><stop stop-opacity="1" stop-color="rgb(35.409546%, 16.091919%, 73.484802%)" offset="0.101563"/><stop stop-opacity="1" stop-color="rgb(35.275269%, 16.525269%, 73.693848%)" offset="0.105469"/><stop stop-opacity="1" stop-color="rgb(35.140991%, 16.960144%, 73.902893%)" offset="0.109375"/><stop stop-opacity="1" stop-color="rgb(35.006714%, 17.39502%, 74.111938%)" offset="0.113281"/><stop stop-opacity="1" stop-color="rgb(34.872437%, 17.829895%, 74.320984%)" offset="0.117188"/><stop stop-opacity="1" stop-color="rgb(34.738159%, 18.263245%, 74.530029%)" offset="0.121094"/><stop stop-opacity="1" stop-color="rgb(34.605408%, 18.69812%, 74.739075%)" offset="0.125"/><stop stop-opacity="1" stop-color="rgb(34.47113%, 19.132996%, 74.946594%)" offset="0.128906"/><stop stop-opacity="1" stop-color="rgb(34.336853%, 19.567871%, 75.15564%)" offset="0.132813"/><stop stop-opacity="1" stop-color="rgb(34.202576%, 20.001221%, 75.364685%)" offset="0.136719"/><stop stop-opacity="1" stop-color="rgb(34.068298%, 20.436096%, 75.57373%)" offset="0.140625"/><stop stop-opacity="1" stop-color="rgb(33.934021%, 20.870972%, 75.782776%)" offset="0.144531"/><stop stop-opacity="1" stop-color="rgb(33.80127%, 21.305847%, 75.991821%)" offset="0.148438"/><stop stop-opacity="1" stop-color="rgb(33.666992%, 21.739197%, 76.200867%)" offset="0.152344"/><stop stop-opacity="1" stop-color="rgb(33.532715%, 22.174072%, 76.409912%)" offset="0.15625"/><stop stop-opacity="1" stop-color="rgb(33.398438%, 22.608948%, 76.618958%)" offset="0.160156"/><stop stop-opacity="1" stop-color="rgb(33.26416%, 23.043823%, 76.828003%)" offset="0.164062"/><stop stop-opacity="1" stop-color="rgb(33.129883%, 23.477173%, 77.035522%)" offset="0.167969"/><stop stop-opacity="1" stop-color="rgb(32.997131%, 23.912048%, 77.244568%)" offset="0.171875"/><stop stop-opacity="1" stop-color="rgb(32.862854%, 24.345398%, 77.453613%)" offset="0.175781"/><stop stop-opacity="1" stop-color="rgb(32.728577%, 24.780273%, 77.662659%)" offset="0.179688"/><stop stop-opacity="1" stop-color="rgb(32.594299%, 25.215149%, 77.871704%)" offset="0.183594"/><stop stop-opacity="1" stop-color="rgb(32.461548%, 25.650024%, 78.08075%)" offset="0.1875"/><stop stop-opacity="1" stop-color="rgb(32.327271%, 26.083374%, 78.289795%)" offset="0.191406"/><stop stop-opacity="1" stop-color="rgb(32.192993%, 26.51825%, 78.49884%)" offset="0.195313"/><stop stop-opacity="1" stop-color="rgb(32.058716%, 26.953125%, 78.707886%)" offset="0.199219"/><stop stop-opacity="1" stop-color="rgb(31.924438%, 27.388%, 78.916931%)" offset="0.203125"/><stop stop-opacity="1" stop-color="rgb(31.790161%, 27.82135%, 79.125977%)" offset="0.207031"/><stop stop-opacity="1" stop-color="rgb(31.65741%, 28.256226%, 79.335022%)" offset="0.210938"/><stop stop-opacity="1" stop-color="rgb(31.523132%, 28.691101%, 79.542542%)" offset="0.214844"/><stop stop-opacity="1" stop-color="rgb(31.388855%, 29.125977%, 79.751587%)" offset="0.21875"/><stop stop-opacity="1" stop-color="rgb(31.254578%, 29.559326%, 79.960632%)" offset="0.222656"/><stop stop-opacity="1" stop-color="rgb(31.1203%, 29.994202%, 80.169678%)" offset="0.226563"/><stop stop-opacity="1" stop-color="rgb(30.986023%, 30.429077%, 80.378723%)" offset="0.230469"/><stop stop-opacity="1" stop-color="rgb(30.853271%, 30.863953%, 80.587769%)" offset="0.234375"/><stop stop-opacity="1" stop-color="rgb(30.718994%, 31.297302%, 80.796814%)" offset="0.238281"/><stop stop-opacity="1" stop-color="rgb(30.584717%, 31.732178%, 81.005859%)" offset="0.242188"/><stop stop-opacity="1" stop-color="rgb(30.450439%, 32.167053%, 81.214905%)" offset="0.246094"/><stop stop-opacity="1" stop-color="rgb(30.316162%, 32.601929%, 81.42395%)" offset="0.25"/><stop stop-opacity="1" stop-color="rgb(30.181885%, 33.035278%, 81.63147%)" offset="0.253906"/><stop stop-opacity="1" stop-color="rgb(30.049133%, 33.470154%, 81.840515%)" offset="0.257812"/><stop stop-opacity="1" stop-color="rgb(29.914856%, 33.903503%, 82.049561%)" offset="0.261719"/><stop stop-opacity="1" stop-color="rgb(29.780579%, 34.338379%, 82.258606%)" offset="0.265625"/><stop stop-opacity="1" stop-color="rgb(29.646301%, 34.773254%, 82.467651%)" offset="0.269531"/><stop stop-opacity="1" stop-color="rgb(29.51355%, 35.20813%, 82.676697%)" offset="0.273438"/><stop stop-opacity="1" stop-color="rgb(29.379272%, 35.641479%, 82.885742%)" offset="0.277344"/><stop stop-opacity="1" stop-color="rgb(29.244995%, 36.076355%, 83.094788%)" offset="0.28125"/><stop stop-opacity="1" stop-color="rgb(29.110718%, 36.51123%, 83.303833%)" offset="0.285156"/><stop stop-opacity="1" stop-color="rgb(28.97644%, 36.946106%, 83.512878%)" offset="0.289062"/><stop stop-opacity="1" stop-color="rgb(28.842163%, 37.379456%, 83.721924%)" offset="0.292969"/><stop stop-opacity="1" stop-color="rgb(28.709412%, 37.814331%, 83.930969%)" offset="0.296875"/><stop stop-opacity="1" stop-color="rgb(28.575134%, 38.249207%, 84.138489%)" offset="0.300781"/><stop stop-opacity="1" stop-color="rgb(28.440857%, 38.684082%, 84.347534%)" offset="0.304687"/><stop stop-opacity="1" stop-color="rgb(28.30658%, 39.117432%, 84.55658%)" offset="0.308594"/><stop stop-opacity="1" stop-color="rgb(28.172302%, 39.552307%, 84.765625%)" offset="0.3125"/><stop stop-opacity="1" stop-color="rgb(28.038025%, 39.987183%, 84.97467%)" offset="0.316406"/><stop stop-opacity="1" stop-color="rgb(27.905273%, 40.422058%, 85.183716%)" offset="0.320312"/><stop stop-opacity="1" stop-color="rgb(27.770996%, 40.855408%, 85.392761%)" offset="0.324219"/><stop stop-opacity="1" stop-color="rgb(27.636719%, 41.290283%, 85.601807%)" offset="0.328125"/><stop stop-opacity="1" stop-color="rgb(27.502441%, 41.723633%, 85.810852%)" offset="0.332031"/><stop stop-opacity="1" stop-color="rgb(27.368164%, 42.158508%, 86.019897%)" offset="0.335937"/><stop stop-opacity="1" stop-color="rgb(27.233887%, 42.593384%, 86.227417%)" offset="0.339844"/><stop stop-opacity="1" stop-color="rgb(27.101135%, 43.028259%, 86.436462%)" offset="0.34375"/><stop stop-opacity="1" stop-color="rgb(26.966858%, 43.461609%, 86.645508%)" offset="0.347656"/><stop stop-opacity="1" stop-color="rgb(26.832581%, 43.896484%, 86.854553%)" offset="0.351562"/><stop stop-opacity="1" stop-color="rgb(26.698303%, 44.33136%, 87.063599%)" offset="0.355469"/><stop stop-opacity="1" stop-color="rgb(26.565552%, 44.766235%, 87.272644%)" offset="0.359375"/><stop stop-opacity="1" stop-color="rgb(26.431274%, 45.199585%, 87.481689%)" offset="0.363281"/><stop stop-opacity="1" stop-color="rgb(26.296997%, 45.63446%, 87.690735%)" offset="0.367187"/><stop stop-opacity="1" stop-color="rgb(26.16272%, 46.069336%, 87.89978%)" offset="0.371094"/><stop stop-opacity="1" stop-color="rgb(26.028442%, 46.504211%, 88.108826%)" offset="0.375"/><stop stop-opacity="1" stop-color="rgb(25.894165%, 46.937561%, 88.317871%)" offset="0.378906"/><stop stop-opacity="1" stop-color="rgb(25.761414%, 47.372437%, 88.526917%)" offset="0.382812"/><stop stop-opacity="1" stop-color="rgb(25.627136%, 47.807312%, 88.734436%)" offset="0.386719"/><stop stop-opacity="1" stop-color="rgb(25.492859%, 48.242188%, 88.943481%)" offset="0.390625"/><stop stop-opacity="1" stop-color="rgb(25.358582%, 48.675537%, 89.152527%)" offset="0.394531"/><stop stop-opacity="1" stop-color="rgb(25.224304%, 49.110413%, 89.361572%)" offset="0.398437"/><stop stop-opacity="1" stop-color="rgb(25.090027%, 49.545288%, 89.570618%)" offset="0.402344"/><stop stop-opacity="1" stop-color="rgb(24.957275%, 49.980164%, 89.779663%)" offset="0.40625"/><stop stop-opacity="1" stop-color="rgb(24.822998%, 50.413513%, 89.988708%)" offset="0.410156"/><stop stop-opacity="1" stop-color="rgb(24.688721%, 50.848389%, 90.197754%)" offset="0.414062"/><stop stop-opacity="1" stop-color="rgb(24.554443%, 51.281738%, 90.406799%)" offset="0.417969"/><stop stop-opacity="1" stop-color="rgb(24.420166%, 51.716614%, 90.615845%)" offset="0.421875"/><stop stop-opacity="1" stop-color="rgb(24.285889%, 52.151489%, 90.823364%)" offset="0.425781"/><stop stop-opacity="1" stop-color="rgb(24.153137%, 52.586365%, 91.03241%)" offset="0.429687"/><stop stop-opacity="1" stop-color="rgb(24.01886%, 53.019714%, 91.241455%)" offset="0.433594"/><stop stop-opacity="1" stop-color="rgb(23.884583%, 53.45459%, 91.4505%)" offset="0.4375"/><stop stop-opacity="1" stop-color="rgb(23.750305%, 53.889465%, 91.659546%)" offset="0.441406"/><stop stop-opacity="1" stop-color="rgb(23.617554%, 54.324341%, 91.868591%)" offset="0.445312"/><stop stop-opacity="1" stop-color="rgb(23.483276%, 54.75769%, 92.077637%)" offset="0.449219"/><stop stop-opacity="1" stop-color="rgb(23.348999%, 55.192566%, 92.286682%)" offset="0.453125"/><stop stop-opacity="1" stop-color="rgb(23.214722%, 55.627441%, 92.495728%)" offset="0.457031"/><stop stop-opacity="1" stop-color="rgb(23.080444%, 56.062317%, 92.704773%)" offset="0.460937"/><stop stop-opacity="1" stop-color="rgb(22.946167%, 56.495667%, 92.912292%)" offset="0.464844"/><stop stop-opacity="1" stop-color="rgb(22.813416%, 56.930542%, 93.121338%)" offset="0.46875"/><stop stop-opacity="1" stop-color="rgb(22.825623%, 57.196045%, 93.193054%)" offset="0.472656"/><stop stop-opacity="1" stop-color="rgb(22.839355%, 57.461548%, 93.264771%)" offset="0.476562"/><stop stop-opacity="1" stop-color="rgb(22.9599%, 57.601929%, 93.234253%)" offset="0.484375"/><stop stop-opacity="1" stop-color="rgb(23.204041%, 57.88269%, 93.174744%)" offset="0.492188"/><stop stop-opacity="1" stop-color="rgb(23.446655%, 58.163452%, 93.113708%)" offset="0.498634"/><stop stop-opacity="1" stop-color="rgb(23.568726%, 58.303833%, 93.084717%)" offset="0.5"/><stop stop-opacity="1" stop-color="rgb(23.68927%, 58.444214%, 93.054199%)" offset="0.501366"/><stop stop-opacity="1" stop-color="rgb(23.81134%, 58.584595%, 93.025208%)" offset="0.507812"/><stop stop-opacity="1" stop-color="rgb(23.931885%, 58.724976%, 92.99469%)" offset="0.515625"/><stop stop-opacity="1" stop-color="rgb(24.176025%, 59.005737%, 92.935181%)" offset="0.523438"/><stop stop-opacity="1" stop-color="rgb(24.41864%, 59.286499%, 92.874146%)" offset="0.53125"/><stop stop-opacity="1" stop-color="rgb(24.661255%, 59.567261%, 92.814636%)" offset="0.539062"/><stop stop-opacity="1" stop-color="rgb(24.905396%, 59.848022%, 92.755127%)" offset="0.546875"/><stop stop-opacity="1" stop-color="rgb(25.14801%, 60.127258%, 92.695618%)" offset="0.554687"/><stop stop-opacity="1" stop-color="rgb(25.390625%, 60.40802%, 92.634583%)" offset="0.5625"/><stop stop-opacity="1" stop-color="rgb(25.634766%, 60.688782%, 92.575073%)" offset="0.570312"/><stop stop-opacity="1" stop-color="rgb(25.87738%, 60.969543%, 92.515564%)" offset="0.578125"/><stop stop-opacity="1" stop-color="rgb(26.119995%, 61.250305%, 92.456055%)" offset="0.585938"/><stop stop-opacity="1" stop-color="rgb(26.364136%, 61.531067%, 92.39502%)" offset="0.59375"/><stop stop-opacity="1" stop-color="rgb(26.60675%, 61.811829%, 92.33551%)" offset="0.601562"/><stop stop-opacity="1" stop-color="rgb(26.849365%, 62.09259%, 92.276001%)" offset="0.609375"/><stop stop-opacity="1" stop-color="rgb(27.09198%, 62.373352%, 92.214966%)" offset="0.617187"/><stop stop-opacity="1" stop-color="rgb(27.336121%, 62.654114%, 92.155457%)" offset="0.625"/><stop stop-opacity="1" stop-color="rgb(27.578735%, 62.934875%, 92.095947%)" offset="0.632812"/><stop stop-opacity="1" stop-color="rgb(27.82135%, 63.215637%, 92.036438%)" offset="0.640625"/><stop stop-opacity="1" stop-color="rgb(28.065491%, 63.496399%, 91.975403%)" offset="0.648438"/><stop stop-opacity="1" stop-color="rgb(28.308105%, 63.777161%, 91.915894%)" offset="0.65625"/><stop stop-opacity="1" stop-color="rgb(28.55072%, 64.057922%, 91.856384%)" offset="0.664062"/><stop stop-opacity="1" stop-color="rgb(28.794861%, 64.338684%, 91.796875%)" offset="0.671875"/><stop stop-opacity="1" stop-color="rgb(29.037476%, 64.619446%, 91.73584%)" offset="0.679687"/><stop stop-opacity="1" stop-color="rgb(29.28009%, 64.900208%, 91.676331%)" offset="0.6875"/><stop stop-opacity="1" stop-color="rgb(29.524231%, 65.180969%, 91.616821%)" offset="0.695312"/><stop stop-opacity="1" stop-color="rgb(29.766846%, 65.461731%, 91.557312%)" offset="0.703125"/><stop stop-opacity="1" stop-color="rgb(30.00946%, 65.742493%, 91.496277%)" offset="0.710938"/><stop stop-opacity="1" stop-color="rgb(30.252075%, 66.023254%, 91.436768%)" offset="0.71875"/><stop stop-opacity="1" stop-color="rgb(30.496216%, 66.304016%, 91.377258%)" offset="0.726562"/><stop stop-opacity="1" stop-color="rgb(30.738831%, 66.584778%, 91.316223%)" offset="0.734375"/><stop stop-opacity="1" stop-color="rgb(30.981445%, 66.86554%, 91.256714%)" offset="0.742187"/><stop stop-opacity="1" stop-color="rgb(31.225586%, 67.146301%, 91.197205%)" offset="0.75"/><stop stop-opacity="1" stop-color="rgb(31.468201%, 67.427063%, 91.137695%)" offset="0.757812"/><stop stop-opacity="1" stop-color="rgb(31.710815%, 67.707825%, 91.07666%)" offset="0.765625"/><stop stop-opacity="1" stop-color="rgb(31.954956%, 67.988586%, 91.017151%)" offset="0.773438"/><stop stop-opacity="1" stop-color="rgb(32.197571%, 68.269348%, 90.957642%)" offset="0.78125"/><stop stop-opacity="1" stop-color="rgb(32.440186%, 68.55011%, 90.898132%)" offset="0.789062"/><stop stop-opacity="1" stop-color="rgb(32.684326%, 68.830872%, 90.837097%)" offset="0.796875"/><stop stop-opacity="1" stop-color="rgb(32.926941%, 69.111633%, 90.777588%)" offset="0.804687"/><stop stop-opacity="1" stop-color="rgb(33.169556%, 69.392395%, 90.718079%)" offset="0.8125"/><stop stop-opacity="1" stop-color="rgb(33.41217%, 69.673157%, 90.658569%)" offset="0.820312"/><stop stop-opacity="1" stop-color="rgb(33.656311%, 69.953918%, 90.597534%)" offset="0.828125"/><stop stop-opacity="1" stop-color="rgb(33.898926%, 70.23468%, 90.538025%)" offset="0.835938"/><stop stop-opacity="1" stop-color="rgb(34.141541%, 70.515442%, 90.478516%)" offset="0.84375"/><stop stop-opacity="1" stop-color="rgb(34.385681%, 70.796204%, 90.41748%)" offset="0.851562"/><stop stop-opacity="1" stop-color="rgb(34.628296%, 71.076965%, 90.357971%)" offset="0.859375"/><stop stop-opacity="1" stop-color="rgb(34.870911%, 71.357727%, 90.298462%)" offset="0.867188"/><stop stop-opacity="1" stop-color="rgb(35.115051%, 71.638489%, 90.238953%)" offset="0.875"/><stop stop-opacity="1" stop-color="rgb(35.357666%, 71.91925%, 90.177917%)" offset="0.882812"/><stop stop-opacity="1" stop-color="rgb(35.600281%, 72.200012%, 90.118408%)" offset="0.890625"/><stop stop-opacity="1" stop-color="rgb(35.844421%, 72.480774%, 90.058899%)" offset="0.898438"/><stop stop-opacity="1" stop-color="rgb(36.087036%, 72.761536%, 89.99939%)" offset="0.90625"/><stop stop-opacity="1" stop-color="rgb(36.329651%, 73.042297%, 89.938354%)" offset="0.914062"/><stop stop-opacity="1" stop-color="rgb(36.572266%, 73.323059%, 89.878845%)" offset="0.921875"/><stop stop-opacity="1" stop-color="rgb(36.79657%, 73.580933%, 89.823914%)" offset="0.9375"/><stop stop-opacity="1" stop-color="rgb(36.898804%, 73.699951%, 89.7995%)" offset="1"/></linearGradient></defs><rect x="-76.8" width="921.6" fill="#ffffff" y="-76.799999" height="921.599993" fill-opacity="1"/><rect x="-76.8" width="921.6" fill="#fffafa" y="-76.799999" height="921.599993" fill-opacity="1"/><g clip-path="url(#00081a1914)"><g clip-path="url(#382bd094a9)"><path fill="url(#1f6ddd3cab)" d="M 149.082031 67.804688 L 149.082031 612.304688 L 690.34375 612.304688 L 690.34375 67.804688 Z M 149.082031 67.804688 " fill-rule="nonzero"/></g></g></svg>