<svg xmlns="http://www.w3.org/2000/svg" xmlns:xlink="http://www.w3.org/1999/xlink" width="107" height="107" viewBox="0 0 107 107">
  <defs>
    <filter id="Rectangle_16562" x="0" y="0" width="107" height="107" filterUnits="userSpaceOnUse">
      <feOffset dy="4" input="SourceAlpha"/>
      <feGaussianBlur stdDeviation="6.5" result="blur"/>
      <feFlood flood-color="#dce1e5"/>
      <feComposite operator="in" in2="blur"/>
      <feComposite in="SourceGraphic"/>
    </filter>
    <linearGradient id="linear-gradient" x1="0.32" y1="-0.164" x2="0.955" y2="0.958" gradientUnits="objectBoundingBox">
      <stop offset="0" stop-color="#53c0b0"/>
      <stop offset="0.493" stop-color="#018acb"/>
      <stop offset="1" stop-color="#fd5dc8"/>
    </linearGradient>
  </defs>
  <g id="Group_58727" data-name="Group 58727" transform="translate(-947.5 -4706.5)">
    <g transform="matrix(1, 0, 0, 1, 947.5, 4706.5)" filter="url(#Rectangle_16562)">
      <rect id="Rectangle_16562-2" data-name="Rectangle 16562" width="68" height="68" rx="5" transform="translate(19.5 15.5)" fill="#fff"/>
    </g>
    <g id="Group_58724" data-name="Group 58724" transform="translate(1841.077 4022.008)">
      <path id="Path_98649" data-name="Path 98649" d="M-822.116,899.016a.88.88,0,0,0-.993-1c-1.285-.006-2.57,0-3.854,0h-.474a4.133,4.133,0,0,0-3.683-5.132A3.923,3.923,0,0,0-834.1,893.9a4.125,4.125,0,0,0-1.312,4.111h-20.8c-.791,0-1.123.29-1.124,1q0,7.116,0,14.232A3.233,3.233,0,0,0-854.9,916.4c.1.026.186.067.279.1h19.535c.043-.035.084-.074.13-.1a.851.851,0,0,0,.422-1.006.877.877,0,0,0-.929-.64c-.2,0-.409,0-.613,0h-2.776v-.523c0-1.576,0-3.152,0-4.728a.884.884,0,0,0-1.112-.933,2.261,2.261,0,0,0-.552.344,2.331,2.331,0,0,1-2.809-.069,2.32,2.32,0,0,1-.74-2.675,2.321,2.321,0,0,1,3.594-1,1.035,1.035,0,0,0,1.128.222c.456-.222.5-.627.5-1.074-.011-1.357,0-2.714,0-4.071v-.48c1.582,0,3.1-.006,4.616,0a.979.979,0,0,0,.972-.454.96.96,0,0,0-.112-1.063,2.3,2.3,0,0,1,.456-3.075,2.319,2.319,0,0,1,3.014,0,2.33,2.33,0,0,1,.421,3.087.941.941,0,0,0-.116,1.023.959.959,0,0,0,.958.478c1.43-.009,2.86,0,4.291,0h.464c.011.12.021.177.021.234q0,6.61,0,13.22a1.478,1.478,0,0,1-1.518,1.527c-.73.012-1.46-.006-2.189.007-.584.01-1.047.482-.9.98a2.84,2.84,0,0,0,.573.768h3.066c.093-.034.184-.076.279-.1a3.23,3.23,0,0,0,2.438-3.151Q-822.1,906.133-822.116,899.016Zm-18.522,4.071a4.021,4.021,0,0,0-4.667,1.718,3.756,3.756,0,0,0-.005,4.4,4.07,4.07,0,0,0,4.685,1.729v3.811h-13.205a1.533,1.533,0,0,1-1.757-1.731q0-6.391,0-12.783v-.447h14.95Z" transform="translate(0 -160.174)" fill="url(#linear-gradient)"/>
      <path id="Path_98650" data-name="Path 98650" d="M-642.652,1080.021a.8.8,0,0,0-.818.594.825.825,0,0,0,.356.985c.082.058.171.105.256.157h.438c.086-.052.177-.1.259-.156a.84.84,0,0,0,.335-1A.793.793,0,0,0-642.652,1080.021Z" transform="translate(-188.81 -325.43)" fill="url(#linear-gradient)"/>
      <path id="Path_98651" data-name="Path 98651" d="M-813.765,725.342c.537.53,1.077,1.056,1.638,1.605-1.819,1.166-2.62,2.737-2.072,4.8a3.81,3.81,0,0,0,3.211,2.921,4.055,4.055,0,0,0,4.392-2.132c.129.119.237.212.338.312.9.9,1.795,1.8,2.7,2.69a.906.906,0,0,0,1.477,0c1.273-1.265,2.538-2.539,3.811-3.8a.926.926,0,0,0,.32-.98.946.946,0,0,0-.8-.645,2.313,2.313,0,0,1-1.877-2.525,2.321,2.321,0,0,1,2.067-2.1,2.318,2.318,0,0,1,2.555,1.893.938.938,0,0,0,.654.794.9.9,0,0,0,.945-.3c1.308-1.313,2.623-2.619,3.929-3.933a.906.906,0,0,0-.01-1.479c-.729-.736-1.464-1.466-2.2-2.2q-3.854-3.854-7.71-7.706a3.257,3.257,0,0,0-4.857.009c-.207.205-.413.412-.619.619q-4.613,4.612-9.225,9.225c-.6.6-.6,1,0,1.6Q-814.434,724.68-813.765,725.342Zm.63-2.422q4.52-4.519,9.041-9.037a1.554,1.554,0,0,1,2.531-.013q4.521,4.518,9.039,9.038c.09.091.175.187.235.252l-2.509,2.515a4.074,4.074,0,0,0-3.936-1.925,3.919,3.919,0,0,0-2.709,1.436,4.146,4.146,0,0,0,.982,6.141l-2.41,2.407c-.085-.08-.2-.184-.314-.295-1.033-1.031-2.068-2.059-3.094-3.1a.946.946,0,0,0-1.053-.333.936.936,0,0,0-.6.878,2.342,2.342,0,0,1-2.336,2.117,2.376,2.376,0,0,1-2.326-2.038,2.333,2.333,0,0,1,2.078-2.648.94.94,0,0,0,.9-.632.927.927,0,0,0-.334-1.013q-1.569-1.557-3.128-3.125c-.1-.1-.2-.209-.32-.337C-813.3,723.106-813.224,723.009-813.135,722.92Z" transform="translate(-36.904 0)" fill="url(#linear-gradient)"/>
    </g>
  </g>
</svg>
