<svg width="59" height="64" viewBox="0 0 59 64" fill="none" xmlns="http://www.w3.org/2000/svg">
<path d="M22.7979 41.339V35.7951C22.7979 35.0297 22.173 34.4092 21.4023 34.4092H7.44633C6.67557 34.4092 6.05074 35.0297 6.05074 35.7951V41.339C6.05074 42.1045 6.67557 42.725 7.44633 42.725H21.4023C22.173 42.725 22.7979 42.1045 22.7979 41.339Z" fill="#F8F9F9"/>
<path d="M46.4491 8.00276C47.1793 8.00276 47.7712 7.4149 47.7712 6.68973C47.7712 5.96457 47.1793 5.37671 46.4491 5.37671C45.7189 5.37671 45.127 5.96457 45.127 6.68973C45.127 7.4149 45.7189 8.00276 46.4491 8.00276Z" fill="#333249"/>
<path d="M40.868 8.00276C41.5982 8.00276 42.1902 7.4149 42.1902 6.68973C42.1902 5.96457 41.5982 5.37671 40.868 5.37671C40.1378 5.37671 39.5459 5.96457 39.5459 6.68973C39.5459 7.4149 40.1378 8.00276 40.868 8.00276Z" fill="#333249"/>
<path d="M35.286 8.00276C36.0162 8.00276 36.6082 7.4149 36.6082 6.68973C36.6082 5.96457 36.0162 5.37671 35.286 5.37671C34.5558 5.37671 33.9639 5.96457 33.9639 6.68973C33.9639 7.4149 34.5558 8.00276 35.286 8.00276Z" fill="#333249"/>
<path d="M24.1303 19.3824H7.50912C7.14177 19.3824 6.78947 19.2441 6.52971 18.9978C6.26995 18.7516 6.12402 18.4176 6.12402 18.0694C6.12402 17.7211 6.26995 17.3872 6.52971 17.1409C6.78947 16.8947 7.14177 16.7563 7.50912 16.7563H24.1303C24.4977 16.7563 24.85 16.8947 25.1097 17.1409C25.3695 17.3872 25.5154 17.7211 25.5154 18.0694C25.5154 18.4176 25.3695 18.7516 25.1097 18.9978C24.85 19.2441 24.4977 19.3824 24.1303 19.3824Z" fill="#F8F9F9"/>
<path d="M10.2376 29.8863H7.44637C7.07624 29.8863 6.72127 29.748 6.45954 29.5017C6.19782 29.2555 6.05078 28.9215 6.05078 28.5733C6.05078 28.225 6.19782 27.8911 6.45954 27.6448C6.72127 27.3986 7.07624 27.2603 7.44637 27.2603H10.2376C10.6077 27.2603 10.9627 27.3986 11.2244 27.6448C11.4861 27.8911 11.6332 28.225 11.6332 28.5733C11.6332 28.9215 11.4861 29.2555 11.2244 29.5017C10.9627 29.748 10.6077 29.8863 10.2376 29.8863Z" fill="#F8F9F9"/>
<path d="M15.8199 24.6343H7.44637C7.07624 24.6343 6.72127 24.496 6.45954 24.2498C6.19782 24.0035 6.05078 23.6696 6.05078 23.3213C6.05078 22.9731 6.19782 22.6391 6.45954 22.3929C6.72127 22.1466 7.07624 22.0083 7.44637 22.0083H15.8199C16.1901 22.0083 16.545 22.1466 16.8068 22.3929C17.0685 22.6391 17.2155 22.9731 17.2155 23.3213C17.2155 23.6696 17.0685 24.0035 16.8068 24.2498C16.545 24.496 16.1901 24.6343 15.8199 24.6343Z" fill="#F8F9F9"/>
<path d="M24.193 29.8863H15.8194C15.4493 29.8863 15.0943 29.748 14.8326 29.5017C14.5709 29.2555 14.4238 28.9215 14.4238 28.5733C14.4238 28.225 14.5709 27.8911 14.8326 27.6448C15.0943 27.3986 15.4493 27.2603 15.8194 27.2603H24.193C24.5631 27.2603 24.9181 27.3986 25.1798 27.6448C25.4415 27.8911 25.5886 28.225 25.5886 28.5733C25.5886 28.9215 25.4415 29.2555 25.1798 29.5017C24.9181 29.748 24.5631 29.8863 24.193 29.8863Z" fill="#F8F9F9"/>
<path d="M52.969 24.65V11.5564H1V47.0914C1 48.196 1.89543 49.0914 3 49.0914H26.9845" stroke="white" stroke-width="2" stroke-linecap="round"/>
<path d="M1 3C1 1.89543 1.89543 1 3 1H50.969C52.0736 1 52.969 1.89543 52.969 3V11.5567H1V3Z" stroke="white" stroke-width="2"/>
<path d="M26.9866 8.003H7.44833C7.07819 8.003 6.72322 7.86466 6.46149 7.61842C6.19977 7.37218 6.05273 7.03821 6.05273 6.68998C6.05273 6.34174 6.19977 6.00777 6.46149 5.76153C6.72322 5.51529 7.07819 5.37695 7.44833 5.37695H26.9866C27.3568 5.37695 27.7117 5.51529 27.9735 5.76153C28.2352 6.00777 28.3822 6.34174 28.3822 6.68998C28.3822 7.03821 28.2352 7.37218 27.9735 7.61842C27.7117 7.86466 27.3568 8.003 26.9866 8.003Z" fill="#F8F9F9"/>
<rect x="6.12598" y="16.7561" width="37.9014" height="2.62605" rx="1.31302" fill="white"/>
<rect x="6.12598" y="34.2634" width="16.7471" height="10.5042" rx="2" fill="white"/>
<rect x="6.12598" y="22.0083" width="27.3242" height="2.62605" rx="1.31302" fill="white"/>
<path d="M43.1451 50.8953C49.4735 50.8953 54.6036 45.8005 54.6036 39.5158C54.6036 33.231 49.4735 28.1362 43.1451 28.1362C36.8167 28.1362 31.6865 33.231 31.6865 39.5158C31.6865 45.8005 36.8167 50.8953 43.1451 50.8953Z" fill="white" stroke="#333249" stroke-width="2" stroke-miterlimit="10"/>
<path d="M27.8105 62.9993C29.3396 58.8237 31.5381 55.3564 34.1853 52.9458M51.598 52.9461C54.2452 55.3568 56.4437 58.8241 57.9726 62.9998" stroke="white" stroke-width="2" stroke-linecap="round" stroke-linejoin="round"/>
<path d="M57.6014 39.8721V45.3736C57.6014 46.4782 56.7059 47.3736 55.6014 47.3736H39.1885" stroke="#333249" stroke-width="2" stroke-linecap="round"/>
<path d="M28.1641 36.4299C28.1641 35.3254 29.0595 34.4299 30.1641 34.4299H33.4791V44.9867H30.1641C29.0595 44.9867 28.1641 44.0912 28.1641 42.9867V36.4299Z" fill="#333249"/>
<path d="M58.2822 42.9866C58.2822 44.0911 57.3868 44.9866 56.2822 44.9866L52.9672 44.9866L52.9672 34.4299L56.2822 34.4299C57.3868 34.4299 58.2822 35.3253 58.2822 36.4299L58.2822 42.9866Z" fill="#333249"/>
</svg>
