<svg xmlns="http://www.w3.org/2000/svg" xmlns:xlink="http://www.w3.org/1999/xlink" width="107" height="107" viewBox="0 0 107 107">
  <defs>
    <filter id="Rectangle_16562" x="0" y="0" width="107" height="107" filterUnits="userSpaceOnUse">
      <feOffset dy="4" input="SourceAlpha"/>
      <feGaussianBlur stdDeviation="6.5" result="blur"/>
      <feFlood flood-color="#dce1e5"/>
      <feComposite operator="in" in2="blur"/>
      <feComposite in="SourceGraphic"/>
    </filter>
    <linearGradient id="linear-gradient" x1="0.704" y1="0.724" x2="0.421" y2="0.162" gradientUnits="objectBoundingBox">
      <stop offset="0" stop-color="#fd5dc8"/>
      <stop offset="0.518" stop-color="#018acb"/>
      <stop offset="1" stop-color="#53c0b0"/>
    </linearGradient>
  </defs>
  <g id="Group_59046" data-name="Group 59046" transform="translate(19.5 15.5)">
    <g transform="matrix(1, 0, 0, 1, -19.5, -15.5)" filter="url(#Rectangle_16562)">
      <rect id="Rectangle_16562-2" data-name="Rectangle 16562" width="68" height="68" rx="5" transform="translate(19.5 15.5)" fill="#fff"/>
    </g>
    <path id="Union_14" data-name="Union 14" d="M.832,35.527a.986.986,0,0,1-.183-.141l-.028-.028a1.32,1.32,0,0,1-.215-.29c-.828-1.3-.463-5.037,1.762-7.263a6.778,6.778,0,0,1,.762-.678l-.1-.1a2.807,2.807,0,0,1,0-3.966l1.608-1.609c.047-.168.1-.346.154-.528L2.295,19.8a2.807,2.807,0,0,1-.135-4.976l8.013-4.48h.037c.537-.65,1.117-1.3,1.743-1.922C19.717.66,31.334-1.239,34.489.711a1.753,1.753,0,0,1,.406.28l.052.047a1.976,1.976,0,0,1,.364.533c1.865,3.259-.075,14.735-7.8,22.447-.626.627-1.271,1.207-1.921,1.745V25.8l-4.46,8.025a2.8,2.8,0,0,1-2.449,1.44H18.6a2.8,2.8,0,0,1-2.445-1.576l-1.117-2.291-.528.154-1.627,1.595a2.8,2.8,0,0,1-3.969,0l-.1-.1a6.715,6.715,0,0,1-.654.762,7.632,7.632,0,0,1-4.039,2.072,7.867,7.867,0,0,1-1.337.122q-.093,0-.186,0A3.541,3.541,0,0,1,.832,35.527Zm2.651-6.421A5.827,5.827,0,0,0,1.963,34a5.826,5.826,0,0,0,4.89-1.52l.009,0a5,5,0,0,0,.613-.8l-3.2-3.2A5.018,5.018,0,0,0,3.482,29.106Zm13.346,1.66,1.01,2.076a.939.939,0,0,0,1.655.056l2.595-4.625A31.32,31.32,0,0,1,16.828,30.767ZM4.151,24.379a.935.935,0,0,0,0,1.323l6.1,6.117a.935.935,0,0,0,1.323,0l1.043-1.038L5.188,23.34ZM13.3,9.751A28.4,28.4,0,0,0,6.292,21.792l7.882,7.885A28.343,28.343,0,0,0,26.21,22.691c7.662-7.679,8.6-18.266,7.493-20.212l-.028-.056-.028-.051-.066-.037-.042-.023a5.077,5.077,0,0,0-2.48-.447C26.955,1.864,19.171,3.881,13.3,9.751ZM3.066,16.462a.935.935,0,0,0,.047,1.66l2.075,1.01a31.421,31.421,0,0,1,2.529-5.261Zm15.434,1a5.374,5.374,0,1,1,3.8,1.575A5.379,5.379,0,0,1,18.5,17.464Zm1.321-6.286a3.505,3.505,0,1,0,2.48-1.028A3.508,3.508,0,0,0,19.822,11.178Z" transform="translate(16 16)" fill="url(#linear-gradient)"/>
  </g>
</svg>
