<svg xmlns="http://www.w3.org/2000/svg" xmlns:xlink="http://www.w3.org/1999/xlink" width="1024" zoomAndPan="magnify" viewBox="0 0 768 767.999994" height="1024" preserveAspectRatio="xMidYMid meet" version="1.0"><rect x="-76.8" width="921.6" fill="#ffffff" y="-76.799999" height="921.599993" fill-opacity="1"/><rect x="-76.8" width="921.6" fill="#fffafa" y="-76.799999" height="921.599993" fill-opacity="1"/><path fill="#4082e7" d="M 431.511719 219.128906 C 433.464844 220.042969 435.386719 221.015625 437.285156 222.046875 C 439.179688 223.074219 441.042969 224.164062 442.875 225.308594 C 444.707031 226.453125 446.507812 227.652344 448.273438 228.910156 C 450.039062 230.164062 451.773438 231.476562 453.46875 232.84375 C 455.164062 234.207031 456.820312 235.625 458.441406 237.09375 C 460.0625 238.566406 461.644531 240.085938 463.183594 241.660156 C 464.726562 243.234375 466.226562 244.855469 467.6875 246.523438 C 469.144531 248.195312 470.5625 249.914062 471.9375 251.679688 C 473.308594 253.441406 474.636719 255.253906 475.921875 257.109375 C 477.207031 258.960938 478.445312 260.859375 479.636719 262.800781 C 480.828125 264.738281 481.96875 266.71875 483.066406 268.742188 C 484.164062 270.761719 485.210938 272.820312 486.207031 274.917969 C 487.207031 277.011719 488.15625 279.144531 489.054688 281.3125 C 489.949219 283.480469 490.796875 285.679688 491.59375 287.914062 C 492.386719 290.144531 493.132812 292.410156 493.824219 294.703125 C 494.511719 296.996094 495.152344 299.316406 495.734375 301.664062 C 496.320312 304.011719 496.851562 306.382812 497.328125 308.78125 C 497.808594 311.175781 498.230469 313.597656 498.597656 316.035156 C 498.96875 318.476562 499.28125 320.933594 499.539062 323.414062 C 499.800781 325.890625 500.003906 328.382812 500.152344 330.890625 C 500.300781 333.402344 500.394531 335.921875 500.433594 338.457031 C 500.472656 340.992188 500.457031 343.535156 500.382812 346.085938 C 500.3125 348.640625 500.183594 351.199219 500.003906 353.765625 C 499.820312 356.332031 499.582031 358.902344 499.289062 361.476562 C 498.996094 364.050781 498.648438 366.625 498.25 369.199219 C 497.847656 371.773438 497.390625 374.34375 496.878906 376.914062 C 496.371094 379.480469 495.804688 382.042969 495.1875 384.601562 C 494.570312 387.15625 493.902344 389.707031 493.179688 392.246094 C 492.457031 394.785156 491.679688 397.3125 490.855469 399.824219 C 490.027344 402.339844 489.148438 404.839844 488.222656 407.328125 C 487.292969 409.8125 486.316406 412.277344 485.285156 414.726562 C 484.257812 417.175781 483.179688 419.605469 482.054688 422.011719 C 480.929688 424.417969 479.757812 426.800781 478.539062 429.160156 C 477.316406 431.519531 476.050781 433.855469 474.742188 436.160156 C 473.429688 438.464844 472.074219 440.742188 470.675781 442.988281 C 469.273438 445.238281 467.832031 447.453125 466.347656 449.636719 C 464.863281 451.816406 463.335938 453.964844 461.769531 456.078125 C 460.203125 458.191406 458.601562 460.269531 456.957031 462.304688 C 455.3125 464.34375 453.632812 466.34375 451.914062 468.300781 C 450.195312 470.261719 448.445312 472.179688 446.65625 474.050781 C 444.871094 475.925781 443.050781 477.757812 441.199219 479.542969 C 439.347656 481.328125 437.464844 483.066406 435.550781 484.761719 C 433.636719 486.453125 431.695312 488.097656 429.726562 489.691406 C 427.757812 491.289062 425.761719 492.832031 423.742188 494.324219 C 421.722656 495.820312 419.679688 497.261719 417.609375 498.652344 C 415.542969 500.042969 413.457031 501.375 411.347656 502.660156 C 409.238281 503.941406 407.113281 505.164062 404.964844 506.335938 C 402.820312 507.507812 400.660156 508.621094 398.484375 509.675781 C 396.308594 510.734375 394.117188 511.730469 391.914062 512.671875 C 389.710938 513.609375 387.5 514.492188 385.277344 515.3125 C 383.054688 516.132812 380.820312 516.894531 378.582031 517.597656 C 376.34375 518.296875 374.101562 518.9375 371.851562 519.515625 C 369.601562 520.09375 367.351562 520.609375 365.097656 521.0625 C 362.84375 521.515625 360.59375 521.910156 358.339844 522.238281 C 356.085938 522.566406 353.835938 522.835938 351.589844 523.039062 C 349.34375 523.242188 347.105469 523.382812 344.871094 523.460938 C 342.636719 523.539062 340.410156 523.550781 338.191406 523.503906 C 335.972656 523.453125 333.765625 523.34375 331.570312 523.167969 C 329.375 522.992188 327.195312 522.753906 325.027344 522.453125 C 322.859375 522.152344 320.707031 521.789062 318.574219 521.363281 C 316.441406 520.9375 314.324219 520.449219 312.226562 519.898438 C 310.128906 519.347656 308.054688 518.738281 306.003906 518.066406 C 303.949219 517.390625 301.917969 516.660156 299.914062 515.867188 C 297.90625 515.070312 295.929688 514.21875 293.976562 513.304688 C 292.023438 512.390625 290.101562 511.421875 288.203125 510.390625 C 286.308594 509.359375 284.445312 508.273438 282.613281 507.128906 C 280.78125 505.984375 278.980469 504.78125 277.214844 503.527344 C 275.449219 502.269531 273.71875 500.957031 272.019531 499.59375 C 270.324219 498.226562 268.667969 496.808594 267.046875 495.339844 C 265.425781 493.871094 263.84375 492.347656 262.304688 490.773438 C 260.761719 489.203125 259.261719 487.582031 257.800781 485.910156 C 256.34375 484.238281 254.925781 482.523438 253.550781 480.757812 C 252.179688 478.992188 250.851562 477.183594 249.566406 475.328125 C 248.28125 473.472656 247.046875 471.574219 245.851562 469.636719 C 244.660156 467.695312 243.519531 465.714844 242.421875 463.695312 C 241.324219 461.671875 240.277344 459.613281 239.28125 457.519531 C 238.28125 455.421875 237.332031 453.289062 236.4375 451.121094 C 235.539062 448.957031 234.691406 446.753906 233.894531 444.523438 C 233.101562 442.289062 232.355469 440.027344 231.664062 437.734375 C 230.976562 435.441406 230.335938 433.121094 229.753906 430.773438 C 229.167969 428.421875 228.636719 426.050781 228.160156 423.65625 C 227.679688 421.257812 227.257812 418.839844 226.890625 416.398438 C 226.519531 413.960938 226.207031 411.5 225.949219 409.023438 C 225.6875 406.546875 225.484375 404.050781 225.335938 401.542969 C 225.1875 399.035156 225.09375 396.511719 225.054688 393.980469 C 225.015625 391.445312 225.03125 388.902344 225.105469 386.347656 C 225.175781 383.792969 225.304688 381.234375 225.484375 378.667969 C 225.667969 376.101562 225.90625 373.53125 226.199219 370.957031 C 226.492188 368.386719 226.839844 365.8125 227.238281 363.238281 C 227.640625 360.664062 228.097656 358.089844 228.609375 355.523438 C 229.117188 352.953125 229.683594 350.390625 230.300781 347.835938 C 230.917969 345.277344 231.585938 342.730469 232.308594 340.191406 C 233.03125 337.652344 233.808594 335.125 234.632812 332.609375 C 235.460938 330.09375 236.339844 327.59375 237.265625 325.109375 C 238.195312 322.625 239.175781 320.15625 240.203125 317.707031 C 241.230469 315.257812 242.308594 312.832031 243.433594 310.421875 C 244.558594 308.015625 245.730469 305.632812 246.949219 303.273438 C 248.171875 300.914062 249.4375 298.582031 250.746094 296.273438 C 252.058594 293.96875 253.414062 291.691406 254.816406 289.445312 C 256.214844 287.199219 257.65625 284.984375 259.140625 282.800781 C 260.625 280.617188 262.152344 278.46875 263.71875 276.355469 C 265.285156 274.242188 266.890625 272.167969 268.53125 270.128906 C 270.175781 268.089844 271.855469 266.089844 273.574219 264.132812 C 275.292969 262.175781 277.042969 260.257812 278.832031 258.382812 C 280.617188 256.507812 282.4375 254.679688 284.289062 252.890625 C 286.140625 251.105469 288.023438 249.367188 289.9375 247.675781 C 291.851562 245.984375 293.792969 244.339844 295.761719 242.742188 C 297.730469 241.148438 299.726562 239.605469 301.746094 238.109375 C 303.765625 236.613281 305.808594 235.171875 307.878906 233.785156 C 309.945312 232.394531 312.03125 231.058594 314.140625 229.777344 C 316.25 228.496094 318.375 227.269531 320.523438 226.097656 C 322.667969 224.929688 324.828125 223.816406 327.003906 222.757812 C 329.179688 221.703125 331.371094 220.703125 333.574219 219.765625 C 335.777344 218.824219 337.988281 217.945312 340.210938 217.121094 C 342.433594 216.300781 344.667969 215.539062 346.90625 214.839844 C 349.144531 214.140625 351.386719 213.5 353.636719 212.921875 C 355.886719 212.34375 358.136719 211.828125 360.390625 211.371094 C 362.644531 210.917969 364.894531 210.527344 367.148438 210.199219 C 369.402344 209.867188 371.652344 209.601562 373.898438 209.398438 C 376.144531 209.195312 378.382812 209.054688 380.617188 208.976562 C 382.855469 208.898438 385.078125 208.882812 387.296875 208.933594 C 389.515625 208.980469 391.722656 209.09375 393.917969 209.269531 C 396.113281 209.441406 398.292969 209.679688 400.460938 209.980469 C 402.628906 210.28125 404.78125 210.644531 406.914062 211.070312 C 409.050781 211.496094 411.164062 211.984375 413.261719 212.535156 C 415.359375 213.085938 417.433594 213.699219 419.488281 214.371094 C 421.539062 215.042969 423.570312 215.777344 425.574219 216.570312 C 427.582031 217.363281 429.558594 218.21875 431.511719 219.128906 Z M 431.511719 219.128906 " fill-opacity="1" fill-rule="nonzero"/><path fill="#d2edff" d="M 407.53125 207.917969 C 409.484375 208.832031 411.410156 209.804688 413.304688 210.832031 C 415.199219 211.863281 417.0625 212.953125 418.894531 214.097656 C 420.726562 215.242188 422.527344 216.441406 424.292969 217.699219 C 426.058594 218.953125 427.792969 220.265625 429.488281 221.628906 C 431.183594 222.996094 432.839844 224.414062 434.460938 225.882812 C 436.082031 227.355469 437.664062 228.875 439.203125 230.449219 C 440.746094 232.019531 442.246094 233.644531 443.707031 235.3125 C 445.164062 236.984375 446.582031 238.703125 447.957031 240.464844 C 449.328125 242.230469 450.65625 244.042969 451.941406 245.894531 C 453.226562 247.75 454.464844 249.648438 455.65625 251.589844 C 456.847656 253.527344 457.988281 255.507812 459.085938 257.527344 C 460.183594 259.550781 461.230469 261.609375 462.226562 263.707031 C 463.226562 265.800781 464.175781 267.933594 465.074219 270.101562 C 465.96875 272.269531 466.816406 274.46875 467.613281 276.703125 C 468.40625 278.933594 469.152344 281.199219 469.84375 283.492188 C 470.535156 285.785156 471.171875 288.105469 471.757812 290.453125 C 472.339844 292.800781 472.871094 295.171875 473.347656 297.570312 C 473.828125 299.964844 474.25 302.382812 474.617188 304.824219 C 474.988281 307.265625 475.300781 309.722656 475.5625 312.199219 C 475.820312 314.679688 476.023438 317.171875 476.171875 319.679688 C 476.320312 322.1875 476.414062 324.710938 476.453125 327.246094 C 476.492188 329.777344 476.476562 332.320312 476.402344 334.875 C 476.332031 337.429688 476.203125 339.988281 476.023438 342.554688 C 475.839844 345.121094 475.601562 347.691406 475.308594 350.265625 C 475.015625 352.839844 474.667969 355.414062 474.269531 357.988281 C 473.867188 360.5625 473.410156 363.132812 472.898438 365.699219 C 472.390625 368.269531 471.828125 370.832031 471.210938 373.390625 C 470.589844 375.945312 469.921875 378.492188 469.199219 381.03125 C 468.476562 383.570312 467.699219 386.097656 466.875 388.613281 C 466.046875 391.128906 465.171875 393.628906 464.242188 396.113281 C 463.3125 398.597656 462.335938 401.066406 461.304688 403.515625 C 460.277344 405.964844 459.199219 408.394531 458.074219 410.800781 C 456.949219 413.207031 455.777344 415.589844 454.558594 417.949219 C 453.335938 420.308594 452.070312 422.640625 450.761719 424.949219 C 449.449219 427.253906 448.09375 429.53125 446.695312 431.777344 C 445.292969 434.027344 443.851562 436.242188 442.367188 438.421875 C 440.882812 440.605469 439.355469 442.753906 437.789062 444.867188 C 436.222656 446.980469 434.621094 449.054688 432.976562 451.09375 C 431.332031 453.132812 429.652344 455.132812 427.933594 457.089844 C 426.214844 459.050781 424.464844 460.964844 422.675781 462.839844 C 420.890625 464.714844 419.070312 466.546875 417.21875 468.332031 C 415.367188 470.117188 413.484375 471.855469 411.570312 473.546875 C 409.65625 475.242188 407.714844 476.886719 405.746094 478.480469 C 403.777344 480.074219 401.78125 481.621094 399.761719 483.113281 C 397.742188 484.609375 395.699219 486.050781 393.628906 487.441406 C 391.5625 488.828125 389.476562 490.164062 387.367188 491.445312 C 385.257812 492.726562 383.132812 493.953125 380.984375 495.125 C 378.839844 496.292969 376.679688 497.40625 374.503906 498.464844 C 372.328125 499.519531 370.136719 500.519531 367.933594 501.460938 C 365.734375 502.398438 363.519531 503.28125 361.296875 504.101562 C 359.074219 504.921875 356.839844 505.683594 354.601562 506.382812 C 352.363281 507.085938 350.121094 507.722656 347.871094 508.300781 C 345.621094 508.878906 343.371094 509.394531 341.117188 509.851562 C 338.863281 510.304688 336.613281 510.695312 334.359375 511.027344 C 332.105469 511.355469 329.855469 511.621094 327.609375 511.824219 C 325.363281 512.03125 323.125 512.171875 320.890625 512.25 C 318.65625 512.324219 316.429688 512.339844 314.210938 512.292969 C 311.992188 512.242188 309.785156 512.128906 307.589844 511.957031 C 305.394531 511.78125 303.214844 511.542969 301.046875 511.242188 C 298.878906 510.941406 296.730469 510.578125 294.59375 510.152344 C 292.460938 509.726562 290.34375 509.238281 288.246094 508.6875 C 286.152344 508.136719 284.074219 507.527344 282.023438 506.851562 C 279.96875 506.179688 277.9375 505.449219 275.933594 504.652344 C 273.929688 503.859375 271.949219 503.007812 269.996094 502.09375 C 268.042969 501.179688 266.121094 500.207031 264.226562 499.179688 C 262.328125 498.148438 260.464844 497.0625 258.632812 495.914062 C 256.800781 494.769531 255 493.570312 253.234375 492.3125 C 251.46875 491.058594 249.738281 489.746094 248.042969 488.382812 C 246.34375 487.015625 244.6875 485.597656 243.066406 484.128906 C 241.445312 482.65625 239.863281 481.136719 238.324219 479.5625 C 236.78125 477.992188 235.28125 476.367188 233.820312 474.699219 C 232.363281 473.027344 230.945312 471.308594 229.574219 469.546875 C 228.199219 467.78125 226.871094 465.96875 225.585938 464.117188 C 224.300781 462.261719 223.066406 460.363281 221.875 458.425781 C 220.683594 456.484375 219.539062 454.503906 218.441406 452.484375 C 217.34375 450.460938 216.296875 448.402344 215.300781 446.308594 C 214.300781 444.210938 213.351562 442.078125 212.457031 439.910156 C 211.558594 437.742188 210.710938 435.542969 209.914062 433.308594 C 209.121094 431.078125 208.375 428.8125 207.6875 426.519531 C 206.996094 424.226562 206.355469 421.90625 205.773438 419.558594 C 205.1875 417.210938 204.65625 414.839844 204.179688 412.441406 C 203.699219 410.046875 203.277344 407.628906 202.910156 405.1875 C 202.539062 402.746094 202.226562 400.289062 201.96875 397.8125 C 201.707031 395.332031 201.503906 392.839844 201.355469 390.332031 C 201.207031 387.824219 201.113281 385.300781 201.074219 382.765625 C 201.035156 380.234375 201.050781 377.691406 201.125 375.136719 C 201.195312 372.582031 201.324219 370.023438 201.503906 367.457031 C 201.6875 364.890625 201.925781 362.320312 202.21875 359.746094 C 202.511719 357.171875 202.859375 354.597656 203.261719 352.023438 C 203.660156 349.453125 204.117188 346.878906 204.628906 344.3125 C 205.136719 341.742188 205.703125 339.179688 206.320312 336.625 C 206.9375 334.066406 207.605469 331.519531 208.328125 328.980469 C 209.050781 326.441406 209.828125 323.914062 210.652344 321.398438 C 211.480469 318.882812 212.359375 316.382812 213.285156 313.898438 C 214.214844 311.414062 215.195312 308.945312 216.222656 306.496094 C 217.25 304.046875 218.328125 301.617188 219.453125 299.210938 C 220.578125 296.804688 221.75 294.421875 222.96875 292.0625 C 224.191406 289.703125 225.457031 287.371094 226.765625 285.0625 C 228.078125 282.757812 229.433594 280.480469 230.835938 278.234375 C 232.234375 275.984375 233.675781 273.769531 235.160156 271.589844 C 236.644531 269.40625 238.171875 267.257812 239.738281 265.144531 C 241.304688 263.03125 242.910156 260.957031 244.550781 258.917969 C 246.195312 256.878906 247.875 254.878906 249.59375 252.921875 C 251.3125 250.960938 253.0625 249.046875 254.851562 247.171875 C 256.636719 245.296875 258.457031 243.464844 260.308594 241.679688 C 262.160156 239.894531 264.042969 238.15625 265.957031 236.464844 C 267.871094 234.769531 269.8125 233.128906 271.78125 231.53125 C 273.75 229.9375 275.746094 228.390625 277.765625 226.898438 C 279.785156 225.402344 281.828125 223.960938 283.898438 222.570312 C 285.964844 221.183594 288.050781 219.847656 290.160156 218.566406 C 292.269531 217.285156 294.398438 216.058594 296.542969 214.886719 C 298.6875 213.71875 300.847656 212.605469 303.023438 211.546875 C 305.199219 210.492188 307.390625 209.492188 309.59375 208.550781 C 311.796875 207.613281 314.007812 206.730469 316.230469 205.910156 C 318.457031 205.089844 320.6875 204.328125 322.925781 203.628906 C 325.164062 202.925781 327.40625 202.289062 329.65625 201.710938 C 331.90625 201.132812 334.15625 200.617188 336.410156 200.160156 C 338.664062 199.707031 340.917969 199.316406 343.167969 198.984375 C 345.421875 198.65625 347.671875 198.390625 349.917969 198.1875 C 352.164062 197.980469 354.402344 197.839844 356.636719 197.765625 C 358.875 197.6875 361.097656 197.671875 363.316406 197.71875 C 365.535156 197.769531 367.742188 197.882812 369.9375 198.054688 C 372.132812 198.230469 374.3125 198.46875 376.480469 198.769531 C 378.648438 199.070312 380.800781 199.433594 382.933594 199.859375 C 385.070312 200.285156 387.183594 200.773438 389.28125 201.324219 C 391.378906 201.875 393.453125 202.484375 395.507812 203.160156 C 397.558594 203.832031 399.589844 204.5625 401.59375 205.359375 C 403.601562 206.152344 405.578125 207.003906 407.53125 207.917969 Z M 407.53125 207.917969 " fill-opacity="1" fill-rule="nonzero"/><path fill="#312f84" d="M 391.953125 241.238281 C 393.464844 241.945312 394.953125 242.699219 396.417969 243.496094 C 397.882812 244.292969 399.324219 245.132812 400.742188 246.019531 C 402.160156 246.902344 403.550781 247.832031 404.917969 248.804688 C 406.285156 249.777344 407.625 250.789062 408.933594 251.84375 C 410.246094 252.902344 411.527344 253.996094 412.78125 255.136719 C 414.035156 256.273438 415.257812 257.449219 416.453125 258.667969 C 417.644531 259.882812 418.804688 261.136719 419.933594 262.429688 C 421.0625 263.722656 422.15625 265.050781 423.21875 266.414062 C 424.28125 267.78125 425.308594 269.179688 426.304688 270.613281 C 427.296875 272.046875 428.253906 273.515625 429.175781 275.015625 C 430.097656 276.515625 430.980469 278.050781 431.828125 279.613281 C 432.675781 281.175781 433.488281 282.765625 434.261719 284.390625 C 435.03125 286.011719 435.765625 287.660156 436.460938 289.335938 C 437.15625 291.011719 437.808594 292.714844 438.425781 294.441406 C 439.039062 296.167969 439.613281 297.917969 440.148438 299.691406 C 440.683594 301.464844 441.175781 303.261719 441.628906 305.078125 C 442.082031 306.894531 442.492188 308.726562 442.863281 310.582031 C 443.230469 312.433594 443.558594 314.304688 443.84375 316.191406 C 444.128906 318.082031 444.371094 319.980469 444.574219 321.898438 C 444.773438 323.816406 444.929688 325.742188 445.046875 327.683594 C 445.160156 329.625 445.234375 331.574219 445.265625 333.535156 C 445.292969 335.496094 445.28125 337.460938 445.226562 339.4375 C 445.167969 341.410156 445.070312 343.390625 444.929688 345.375 C 444.789062 347.363281 444.605469 349.351562 444.378906 351.339844 C 444.152344 353.332031 443.882812 355.320312 443.574219 357.3125 C 443.261719 359.304688 442.910156 361.292969 442.515625 363.277344 C 442.121094 365.265625 441.683594 367.246094 441.207031 369.226562 C 440.730469 371.203125 440.210938 373.171875 439.652344 375.136719 C 439.09375 377.101562 438.492188 379.054688 437.855469 381 C 437.214844 382.945312 436.535156 384.878906 435.816406 386.800781 C 435.097656 388.726562 434.34375 390.632812 433.546875 392.527344 C 432.753906 394.421875 431.917969 396.300781 431.046875 398.160156 C 430.179688 400.023438 429.269531 401.867188 428.328125 403.691406 C 427.382812 405.515625 426.40625 407.320312 425.390625 409.105469 C 424.375 410.886719 423.328125 412.648438 422.246094 414.386719 C 421.164062 416.125 420.046875 417.839844 418.898438 419.527344 C 417.75 421.214844 416.570312 422.875 415.359375 424.511719 C 414.148438 426.144531 412.90625 427.75 411.636719 429.328125 C 410.363281 430.90625 409.0625 432.449219 407.734375 433.964844 C 406.40625 435.480469 405.050781 436.964844 403.667969 438.414062 C 402.289062 439.863281 400.878906 441.277344 399.445312 442.660156 C 398.015625 444.039062 396.558594 445.386719 395.078125 446.695312 C 393.597656 448.003906 392.097656 449.273438 390.574219 450.507812 C 389.050781 451.742188 387.507812 452.9375 385.945312 454.09375 C 384.382812 455.25 382.800781 456.363281 381.203125 457.4375 C 379.605469 458.515625 377.988281 459.546875 376.359375 460.539062 C 374.726562 461.527344 373.082031 462.476562 371.421875 463.382812 C 369.761719 464.289062 368.09375 465.148438 366.410156 465.964844 C 364.726562 466.785156 363.03125 467.554688 361.328125 468.28125 C 359.625 469.007812 357.914062 469.691406 356.191406 470.324219 C 354.472656 470.960938 352.746094 471.550781 351.015625 472.089844 C 349.285156 472.632812 347.550781 473.128906 345.808594 473.574219 C 344.070312 474.023438 342.328125 474.421875 340.585938 474.773438 C 338.84375 475.125 337.101562 475.425781 335.359375 475.683594 C 333.617188 475.9375 331.875 476.144531 330.136719 476.300781 C 328.402344 476.457031 326.667969 476.566406 324.941406 476.625 C 323.210938 476.6875 321.488281 476.699219 319.773438 476.660156 C 318.058594 476.621094 316.351562 476.535156 314.652344 476.402344 C 312.957031 476.265625 311.269531 476.082031 309.59375 475.847656 C 307.914062 475.617188 306.25 475.335938 304.601562 475.003906 C 302.949219 474.675781 301.3125 474.296875 299.691406 473.871094 C 298.070312 473.445312 296.464844 472.972656 294.875 472.453125 C 293.289062 471.933594 291.71875 471.367188 290.167969 470.753906 C 288.617188 470.136719 287.085938 469.476562 285.574219 468.773438 C 284.066406 468.066406 282.578125 467.3125 281.109375 466.515625 C 279.644531 465.71875 278.203125 464.878906 276.785156 463.992188 C 275.367188 463.109375 273.976562 462.179688 272.609375 461.207031 C 271.242188 460.238281 269.90625 459.222656 268.59375 458.167969 C 267.28125 457.109375 266 456.015625 264.746094 454.875 C 263.492188 453.738281 262.269531 452.5625 261.078125 451.34375 C 259.882812 450.128906 258.722656 448.875 257.59375 447.582031 C 256.464844 446.289062 255.371094 444.960938 254.308594 443.597656 C 253.246094 442.230469 252.21875 440.832031 251.226562 439.398438 C 250.230469 437.964844 249.273438 436.496094 248.351562 434.996094 C 247.429688 433.496094 246.546875 431.960938 245.699219 430.398438 C 244.851562 428.835938 244.039062 427.246094 243.269531 425.621094 C 242.496094 424 241.761719 422.351562 241.066406 420.675781 C 240.375 419 239.71875 417.296875 239.101562 415.570312 C 238.488281 413.84375 237.914062 412.09375 237.378906 410.320312 C 236.84375 408.546875 236.351562 406.75 235.898438 404.933594 C 235.445312 403.117188 235.035156 401.285156 234.664062 399.429688 C 234.296875 397.578125 233.96875 395.707031 233.683594 393.820312 C 233.398438 391.929688 233.15625 390.03125 232.957031 388.113281 C 232.753906 386.195312 232.597656 384.269531 232.480469 382.328125 C 232.367188 380.386719 232.292969 378.4375 232.265625 376.476562 C 232.234375 374.515625 232.246094 372.550781 232.304688 370.574219 C 232.359375 368.601562 232.457031 366.621094 232.597656 364.636719 C 232.738281 362.648438 232.921875 360.660156 233.148438 358.671875 C 233.375 356.679688 233.644531 354.691406 233.953125 352.699219 C 234.265625 350.707031 234.617188 348.71875 235.011719 346.734375 C 235.40625 344.746094 235.84375 342.765625 236.320312 340.785156 C 236.796875 338.808594 237.316406 336.839844 237.875 334.875 C 238.433594 332.910156 239.035156 330.957031 239.671875 329.011719 C 240.3125 327.066406 240.992188 325.132812 241.710938 323.210938 C 242.429688 321.285156 243.183594 319.378906 243.980469 317.484375 C 244.777344 315.589844 245.609375 313.710938 246.480469 311.851562 C 247.351562 309.988281 248.257812 308.144531 249.199219 306.320312 C 250.144531 304.496094 251.121094 302.691406 252.136719 300.90625 C 253.152344 299.125 254.199219 297.363281 255.28125 295.625 C 256.363281 293.886719 257.480469 292.171875 258.628906 290.484375 C 259.777344 288.796875 260.957031 287.136719 262.167969 285.5 C 263.378906 283.867188 264.621094 282.261719 265.894531 280.683594 C 267.164062 279.109375 268.464844 277.5625 269.792969 276.046875 C 271.121094 274.53125 272.476562 273.050781 273.859375 271.597656 C 275.242188 270.148438 276.648438 268.734375 278.082031 267.351562 C 279.511719 265.972656 280.96875 264.625 282.449219 263.316406 C 283.929688 262.007812 285.429688 260.738281 286.953125 259.503906 C 288.476562 258.269531 290.019531 257.074219 291.582031 255.917969 C 293.144531 254.761719 294.726562 253.648438 296.324219 252.574219 C 297.921875 251.496094 299.539062 250.464844 301.167969 249.472656 C 302.800781 248.484375 304.445312 247.535156 306.105469 246.628906 C 307.765625 245.722656 309.4375 244.863281 311.121094 244.046875 C 312.800781 243.230469 314.496094 242.457031 316.199219 241.730469 C 317.902344 241.003906 319.613281 240.320312 321.335938 239.6875 C 323.054688 239.050781 324.78125 238.460938 326.511719 237.921875 C 328.242188 237.378906 329.980469 236.882812 331.71875 236.4375 C 333.457031 235.988281 335.199219 235.589844 336.941406 235.238281 C 338.683594 234.886719 340.425781 234.585938 342.167969 234.328125 C 343.914062 234.074219 345.652344 233.867188 347.390625 233.710938 C 349.128906 233.554688 350.859375 233.445312 352.589844 233.386719 C 354.316406 233.324219 356.039062 233.3125 357.753906 233.351562 C 359.46875 233.390625 361.175781 233.476562 362.875 233.613281 C 364.570312 233.746094 366.257812 233.929688 367.9375 234.164062 C 369.613281 234.394531 371.277344 234.675781 372.925781 235.007812 C 374.578125 235.335938 376.214844 235.714844 377.835938 236.140625 C 379.457031 236.566406 381.0625 237.039062 382.652344 237.558594 C 384.238281 238.078125 385.808594 238.644531 387.359375 239.257812 C 388.910156 239.875 390.441406 240.535156 391.953125 241.238281 Z M 391.953125 241.238281 " fill-opacity="1" fill-rule="nonzero"/><path fill="#d2edff" d="M 374.691406 278.160156 C 375.710938 278.640625 376.714844 279.148438 377.707031 279.683594 C 378.695312 280.222656 379.671875 280.789062 380.628906 281.390625 C 381.585938 281.988281 382.527344 282.613281 383.449219 283.269531 C 384.371094 283.925781 385.277344 284.613281 386.160156 285.324219 C 387.046875 286.039062 387.914062 286.777344 388.761719 287.546875 C 389.605469 288.316406 390.433594 289.109375 391.238281 289.933594 C 392.042969 290.753906 392.828125 291.601562 393.589844 292.472656 C 394.351562 293.347656 395.09375 294.246094 395.808594 295.167969 C 396.527344 296.089844 397.222656 297.035156 397.894531 298.003906 C 398.5625 298.972656 399.210938 299.964844 399.832031 300.976562 C 400.457031 301.988281 401.054688 303.023438 401.625 304.082031 C 402.199219 305.136719 402.746094 306.210938 403.265625 307.308594 C 403.789062 308.402344 404.285156 309.515625 404.753906 310.648438 C 405.222656 311.78125 405.664062 312.929688 406.078125 314.097656 C 406.496094 315.261719 406.882812 316.445312 407.246094 317.644531 C 407.605469 318.84375 407.9375 320.054688 408.246094 321.28125 C 408.550781 322.507812 408.828125 323.746094 409.078125 325 C 409.328125 326.25 409.546875 327.515625 409.742188 328.789062 C 409.933594 330.0625 410.097656 331.347656 410.234375 332.644531 C 410.367188 333.9375 410.476562 335.238281 410.550781 336.550781 C 410.628906 337.859375 410.679688 339.179688 410.699219 340.503906 C 410.71875 341.828125 410.710938 343.15625 410.671875 344.488281 C 410.636719 345.824219 410.570312 347.160156 410.472656 348.5 C 410.378906 349.84375 410.253906 351.183594 410.101562 352.53125 C 409.949219 353.875 409.765625 355.21875 409.558594 356.5625 C 409.347656 357.910156 409.109375 359.25 408.84375 360.59375 C 408.578125 361.933594 408.28125 363.273438 407.960938 364.609375 C 407.636719 365.945312 407.285156 367.277344 406.910156 368.605469 C 406.53125 369.929688 406.125 371.25 405.695312 372.566406 C 405.261719 373.878906 404.804688 375.183594 404.320312 376.484375 C 403.832031 377.78125 403.324219 379.070312 402.785156 380.351562 C 402.25 381.628906 401.6875 382.898438 401.097656 384.15625 C 400.511719 385.414062 399.898438 386.65625 399.261719 387.890625 C 398.621094 389.125 397.960938 390.34375 397.277344 391.546875 C 396.589844 392.75 395.882812 393.941406 395.152344 395.113281 C 394.421875 396.289062 393.667969 397.445312 392.890625 398.585938 C 392.117188 399.726562 391.320312 400.847656 390.5 401.953125 C 389.683594 403.058594 388.84375 404.140625 387.984375 405.207031 C 387.125 406.273438 386.246094 407.316406 385.351562 408.339844 C 384.453125 409.363281 383.539062 410.363281 382.605469 411.34375 C 381.671875 412.324219 380.71875 413.277344 379.753906 414.210938 C 378.785156 415.144531 377.800781 416.054688 376.800781 416.9375 C 375.800781 417.820312 374.789062 418.679688 373.757812 419.515625 C 372.730469 420.347656 371.6875 421.15625 370.632812 421.933594 C 369.578125 422.714844 368.507812 423.46875 367.429688 424.195312 C 366.347656 424.921875 365.257812 425.617188 364.15625 426.289062 C 363.054688 426.957031 361.945312 427.597656 360.824219 428.210938 C 359.703125 428.820312 358.574219 429.402344 357.4375 429.953125 C 356.300781 430.507812 355.15625 431.027344 354.003906 431.519531 C 352.855469 432.011719 351.699219 432.46875 350.535156 432.898438 C 349.375 433.328125 348.207031 433.726562 347.039062 434.09375 C 345.871094 434.457031 344.699219 434.792969 343.523438 435.09375 C 342.347656 435.394531 341.171875 435.664062 339.996094 435.902344 C 338.816406 436.140625 337.640625 436.34375 336.464844 436.515625 C 335.285156 436.6875 334.109375 436.828125 332.9375 436.933594 C 331.765625 437.042969 330.59375 437.113281 329.425781 437.15625 C 328.257812 437.195312 327.09375 437.203125 325.9375 437.179688 C 324.777344 437.152344 323.625 437.09375 322.480469 437.003906 C 321.332031 436.910156 320.191406 436.785156 319.058594 436.628906 C 317.925781 436.472656 316.804688 436.28125 315.6875 436.058594 C 314.574219 435.835938 313.46875 435.582031 312.371094 435.296875 C 311.277344 435.007812 310.191406 434.6875 309.121094 434.335938 C 308.046875 433.984375 306.988281 433.601562 305.9375 433.1875 C 304.890625 432.773438 303.855469 432.328125 302.835938 431.851562 C 301.816406 431.371094 300.8125 430.867188 299.820312 430.328125 C 298.832031 429.789062 297.859375 429.222656 296.898438 428.621094 C 295.941406 428.023438 295.003906 427.398438 294.078125 426.742188 C 293.15625 426.085938 292.253906 425.398438 291.367188 424.6875 C 290.480469 423.972656 289.613281 423.234375 288.769531 422.464844 C 287.921875 421.695312 287.09375 420.902344 286.289062 420.078125 C 285.484375 419.257812 284.699219 418.410156 283.9375 417.539062 C 283.175781 416.664062 282.433594 415.769531 281.71875 414.84375 C 281 413.921875 280.304688 412.976562 279.636719 412.007812 C 278.964844 411.039062 278.316406 410.050781 277.695312 409.035156 C 277.074219 408.023438 276.476562 406.988281 275.902344 405.929688 C 275.328125 404.875 274.78125 403.800781 274.261719 402.703125 C 273.738281 401.609375 273.242188 400.496094 272.773438 399.363281 C 272.304688 398.230469 271.863281 397.082031 271.449219 395.914062 C 271.03125 394.75 270.644531 393.566406 270.28125 392.367188 C 269.921875 391.171875 269.589844 389.957031 269.28125 388.730469 C 268.976562 387.503906 268.699219 386.265625 268.449219 385.011719 C 268.203125 383.761719 267.980469 382.496094 267.789062 381.222656 C 267.59375 379.949219 267.429688 378.664062 267.296875 377.367188 C 267.160156 376.074219 267.054688 374.773438 266.976562 373.460938 C 266.898438 372.152344 266.847656 370.832031 266.828125 369.507812 C 266.808594 368.183594 266.816406 366.855469 266.855469 365.523438 C 266.890625 364.1875 266.957031 362.851562 267.054688 361.511719 C 267.148438 360.167969 267.273438 358.828125 267.425781 357.480469 C 267.578125 356.136719 267.761719 354.792969 267.96875 353.449219 C 268.179688 352.105469 268.417969 350.761719 268.683594 349.417969 C 268.953125 348.078125 269.246094 346.738281 269.570312 345.402344 C 269.890625 344.066406 270.242188 342.734375 270.617188 341.40625 C 270.996094 340.082031 271.402344 338.761719 271.832031 337.449219 C 272.265625 336.132812 272.722656 334.828125 273.207031 333.527344 C 273.695312 332.230469 274.207031 330.941406 274.742188 329.664062 C 275.28125 328.382812 275.84375 327.113281 276.429688 325.855469 C 277.019531 324.597656 277.632812 323.355469 278.269531 322.121094 C 278.90625 320.886719 279.566406 319.667969 280.25 318.464844 C 280.9375 317.261719 281.644531 316.070312 282.375 314.898438 C 283.109375 313.722656 283.859375 312.566406 284.636719 311.425781 C 285.414062 310.285156 286.210938 309.164062 287.027344 308.058594 C 287.847656 306.953125 288.683594 305.871094 289.542969 304.804688 C 290.402344 303.738281 291.28125 302.695312 292.175781 301.671875 C 293.074219 300.648438 293.988281 299.648438 294.921875 298.667969 C 295.855469 297.6875 296.808594 296.734375 297.777344 295.800781 C 298.742188 294.867188 299.726562 293.957031 300.726562 293.074219 C 301.726562 292.191406 302.738281 291.332031 303.769531 290.496094 C 304.796875 289.664062 305.839844 288.855469 306.894531 288.078125 C 307.949219 287.296875 309.019531 286.542969 310.097656 285.816406 C 311.179688 285.089844 312.269531 284.394531 313.371094 283.722656 C 314.472656 283.054688 315.585938 282.414062 316.703125 281.800781 C 317.824219 281.191406 318.953125 280.609375 320.089844 280.058594 C 321.230469 279.503906 322.371094 278.984375 323.523438 278.492188 C 324.675781 278 325.832031 277.542969 326.992188 277.113281 C 328.152344 276.683594 329.320312 276.285156 330.488281 275.917969 C 331.660156 275.554688 332.832031 275.21875 334.003906 274.917969 C 335.179688 274.617188 336.355469 274.347656 337.535156 274.109375 C 338.710938 273.871094 339.886719 273.667969 341.066406 273.496094 C 342.242188 273.324219 343.417969 273.183594 344.589844 273.078125 C 345.765625 272.96875 346.933594 272.898438 348.101562 272.855469 C 349.269531 272.816406 350.433594 272.808594 351.589844 272.832031 C 352.75 272.859375 353.902344 272.917969 355.050781 273.007812 C 356.195312 273.101562 357.335938 273.226562 358.46875 273.382812 C 359.601562 273.539062 360.726562 273.730469 361.839844 273.953125 C 362.957031 274.175781 364.058594 274.429688 365.15625 274.714844 C 366.25 275.003906 367.335938 275.324219 368.410156 275.675781 C 369.480469 276.027344 370.542969 276.410156 371.589844 276.824219 C 372.636719 277.238281 373.671875 277.683594 374.691406 278.160156 Z M 374.691406 278.160156 " fill-opacity="1" fill-rule="nonzero"/><path fill="#312f84" d="M 354.902344 320.484375 C 355.820312 320.914062 356.710938 321.398438 357.570312 321.933594 C 358.429688 322.472656 359.261719 323.0625 360.054688 323.703125 C 360.851562 324.34375 361.613281 325.035156 362.335938 325.773438 C 363.0625 326.511719 363.746094 327.292969 364.390625 328.121094 C 365.035156 328.953125 365.636719 329.820312 366.195312 330.734375 C 366.757812 331.644531 367.269531 332.59375 367.738281 333.578125 C 368.207031 334.5625 368.628906 335.578125 369.003906 336.625 C 369.375 337.675781 369.699219 338.75 369.976562 339.855469 C 370.25 340.957031 370.472656 342.082031 370.648438 343.226562 C 370.820312 344.375 370.941406 345.535156 371.011719 346.714844 C 371.082031 347.890625 371.097656 349.082031 371.066406 350.28125 C 371.03125 351.480469 370.945312 352.683594 370.808594 353.890625 C 370.671875 355.101562 370.484375 356.308594 370.242188 357.515625 C 370.003906 358.722656 369.714844 359.921875 369.375 361.113281 C 369.035156 362.304688 368.648438 363.484375 368.210938 364.652344 C 367.773438 365.820312 367.292969 366.96875 366.761719 368.097656 C 366.234375 369.230469 365.664062 370.335938 365.046875 371.421875 C 364.429688 372.503906 363.773438 373.558594 363.078125 374.582031 C 362.378906 375.609375 361.644531 376.597656 360.871094 377.554688 C 360.101562 378.515625 359.292969 379.433594 358.457031 380.3125 C 357.617188 381.195312 356.746094 382.03125 355.847656 382.828125 C 354.949219 383.621094 354.027344 384.371094 353.078125 385.070312 C 352.128906 385.773438 351.160156 386.425781 350.167969 387.027344 C 349.179688 387.628906 348.171875 388.179688 347.148438 388.675781 C 346.128906 389.171875 345.09375 389.613281 344.050781 389.996094 C 343.007812 390.382812 341.957031 390.710938 340.898438 390.984375 C 339.84375 391.253906 338.785156 391.46875 337.730469 391.625 C 336.671875 391.777344 335.617188 391.875 334.566406 391.910156 C 333.519531 391.945312 332.476562 391.921875 331.445312 391.839844 C 330.414062 391.757812 329.398438 391.617188 328.398438 391.417969 C 327.394531 391.21875 326.410156 390.960938 325.445312 390.644531 C 324.480469 390.328125 323.542969 389.957031 322.625 389.527344 C 321.707031 389.097656 320.816406 388.617188 319.957031 388.078125 C 319.097656 387.539062 318.269531 386.949219 317.472656 386.308594 C 316.675781 385.667969 315.914062 384.980469 315.191406 384.238281 C 314.46875 383.5 313.78125 382.71875 313.136719 381.890625 C 312.492188 381.058594 311.890625 380.191406 311.332031 379.277344 C 310.773438 378.367188 310.257812 377.417969 309.789062 376.433594 C 309.320312 375.449219 308.898438 374.433594 308.523438 373.386719 C 308.152344 372.335938 307.828125 371.261719 307.554688 370.15625 C 307.277344 369.054688 307.054688 367.929688 306.882812 366.785156 C 306.707031 365.636719 306.585938 364.476562 306.515625 363.296875 C 306.445312 362.121094 306.429688 360.929688 306.460938 359.730469 C 306.496094 358.53125 306.582031 357.328125 306.71875 356.121094 C 306.855469 354.910156 307.046875 353.703125 307.285156 352.496094 C 307.523438 351.289062 307.8125 350.089844 308.152344 348.898438 C 308.492188 347.707031 308.882812 346.527344 309.316406 345.359375 C 309.753906 344.191406 310.234375 343.042969 310.765625 341.914062 C 311.292969 340.78125 311.867188 339.675781 312.480469 338.589844 C 313.097656 337.507812 313.753906 336.453125 314.453125 335.429688 C 315.148438 334.402344 315.882812 333.414062 316.65625 332.457031 C 317.425781 331.496094 318.234375 330.578125 319.074219 329.699219 C 319.910156 328.816406 320.78125 327.980469 321.679688 327.183594 C 322.578125 326.390625 323.5 325.640625 324.449219 324.941406 C 325.398438 324.238281 326.367188 323.585938 327.359375 322.984375 C 328.347656 322.382812 329.355469 321.832031 330.378906 321.335938 C 331.398438 320.839844 332.433594 320.398438 333.476562 320.015625 C 334.523438 319.628906 335.570312 319.300781 336.628906 319.027344 C 337.683594 318.757812 338.742188 318.542969 339.800781 318.386719 C 340.855469 318.234375 341.910156 318.136719 342.960938 318.101562 C 344.011719 318.066406 345.050781 318.089844 346.082031 318.171875 C 347.113281 318.253906 348.128906 318.394531 349.132812 318.59375 C 350.132812 318.792969 351.117188 319.050781 352.082031 319.367188 C 353.046875 319.683594 353.988281 320.054688 354.902344 320.484375 Z M 354.902344 320.484375 " fill-opacity="1" fill-rule="nonzero"/><path fill="#6017b3" d="M 248 293.910156 C 248 293.910156 224.097656 215.535156 199.828125 203.554688 C 175.558594 191.574219 183.4375 263.699219 183.4375 263.699219 Z M 248 293.910156 " fill-opacity="1" fill-rule="nonzero"/><path fill="#6017b3" d="M 235.207031 318.0625 C 235.207031 318.0625 163.890625 339.117188 154.117188 320.519531 C 144.339844 301.921875 169.28125 293.910156 169.28125 293.910156 Z M 235.207031 318.0625 " fill-opacity="1" fill-rule="nonzero"/><path fill="#5656bf" d="M 199.429688 273.039062 C 199.199219 273.039062 198.976562 272.996094 198.761719 272.910156 C 198.546875 272.828125 198.351562 272.707031 198.183594 272.550781 C 198.011719 272.394531 197.875 272.214844 197.773438 272.007812 C 197.671875 271.800781 197.609375 271.582031 197.589844 271.351562 L 193.253906 222.636719 C 193.246094 222.398438 193.28125 222.167969 193.363281 221.945312 C 193.445312 221.722656 193.5625 221.523438 193.71875 221.347656 C 193.878906 221.171875 194.0625 221.027344 194.273438 220.921875 C 194.484375 220.816406 194.707031 220.753906 194.941406 220.730469 C 195.179688 220.710938 195.410156 220.734375 195.636719 220.800781 C 195.863281 220.871094 196.070312 220.976562 196.253906 221.121094 C 196.441406 221.269531 196.59375 221.445312 196.710938 221.648438 C 196.832031 221.855469 196.90625 222.074219 196.941406 222.308594 L 201.277344 271.023438 C 201.300781 271.265625 201.273438 271.507812 201.199219 271.738281 C 201.125 271.972656 201.011719 272.183594 200.851562 272.375 C 200.695312 272.5625 200.507812 272.710938 200.289062 272.828125 C 200.074219 272.941406 199.84375 273.007812 199.597656 273.03125 Z M 199.429688 273.039062 " fill-opacity="1" fill-rule="nonzero"/><path fill="#5656bf" d="M 213.613281 279.667969 C 213.378906 279.667969 213.152344 279.628906 212.933594 279.542969 C 212.71875 279.457031 212.523438 279.335938 212.351562 279.175781 C 212.179688 279.015625 212.042969 278.832031 211.941406 278.621094 C 211.839844 278.410156 211.78125 278.1875 211.765625 277.953125 L 209.636719 248.191406 C 209.609375 247.941406 209.628906 247.691406 209.699219 247.449219 C 209.769531 247.203125 209.886719 246.984375 210.046875 246.789062 C 210.210938 246.59375 210.402344 246.4375 210.628906 246.320312 C 210.855469 246.203125 211.09375 246.136719 211.347656 246.117188 C 211.601562 246.101562 211.847656 246.132812 212.085938 246.214844 C 212.328125 246.300781 212.539062 246.425781 212.726562 246.597656 C 212.914062 246.769531 213.0625 246.96875 213.167969 247.199219 C 213.273438 247.429688 213.328125 247.671875 213.335938 247.925781 L 215.425781 277.6875 C 215.441406 277.933594 215.410156 278.171875 215.332031 278.40625 C 215.253906 278.636719 215.136719 278.847656 214.976562 279.03125 C 214.816406 279.21875 214.625 279.363281 214.40625 279.476562 C 214.1875 279.585938 213.957031 279.648438 213.710938 279.667969 Z M 213.613281 279.667969 " fill-opacity="1" fill-rule="nonzero"/><path fill="#5656bf" d="M 169.882812 316.375 C 169.65625 316.378906 169.4375 316.339844 169.226562 316.261719 C 169.015625 316.1875 168.824219 316.074219 168.65625 315.925781 C 168.484375 315.777344 168.347656 315.605469 168.238281 315.410156 C 168.132812 315.210938 168.0625 315 168.03125 314.777344 C 168.003906 314.554688 168.011719 314.332031 168.0625 314.113281 C 168.113281 313.894531 168.199219 313.691406 168.324219 313.503906 C 168.449219 313.316406 168.605469 313.160156 168.785156 313.027344 C 168.96875 312.894531 169.167969 312.800781 169.386719 312.742188 L 198.9375 304.515625 C 199.171875 304.445312 199.410156 304.425781 199.65625 304.453125 C 199.898438 304.484375 200.128906 304.554688 200.34375 304.675781 C 200.558594 304.792969 200.742188 304.949219 200.898438 305.140625 C 201.050781 305.335938 201.160156 305.546875 201.226562 305.785156 C 201.296875 306.019531 201.316406 306.261719 201.289062 306.503906 C 201.261719 306.75 201.1875 306.976562 201.070312 307.195312 C 200.949219 307.410156 200.792969 307.59375 200.601562 307.746094 C 200.410156 307.898438 200.195312 308.011719 199.960938 308.078125 L 170.375 316.3125 C 170.214844 316.355469 170.050781 316.375 169.882812 316.375 Z M 169.882812 316.375 " fill-opacity="1" fill-rule="nonzero"/><path fill="#5656bf" d="M 343.355469 351.410156 L 343.175781 351.519531 C 342.445312 351.9375 341.664062 352.1875 340.828125 352.269531 C 339.992188 352.355469 339.175781 352.265625 338.378906 352.003906 L 177.019531 298.921875 C 176.121094 298.625 175.253906 298.261719 174.410156 297.828125 C 173.570312 297.394531 172.765625 296.898438 172.003906 296.339844 C 171.238281 295.78125 170.523438 295.167969 169.859375 294.496094 C 169.191406 293.824219 168.578125 293.105469 168.027344 292.339844 C 167.472656 291.574219 166.980469 290.769531 166.550781 289.925781 C 166.125 289.078125 165.765625 288.207031 165.472656 287.308594 C 165.183594 286.40625 164.964844 285.488281 164.816406 284.554688 C 164.667969 283.621094 164.597656 282.679688 164.597656 281.734375 C 164.59375 279.78125 164.902344 277.878906 165.523438 276.027344 C 165.730469 275.417969 165.964844 274.820312 166.234375 274.238281 C 166.503906 273.652344 166.800781 273.085938 167.128906 272.53125 C 167.460938 271.980469 167.816406 271.445312 168.203125 270.933594 C 168.589844 270.417969 169 269.925781 169.441406 269.453125 C 169.878906 268.984375 170.339844 268.539062 170.828125 268.117188 C 171.3125 267.695312 171.820312 267.300781 172.347656 266.933594 C 172.875 266.566406 173.421875 266.230469 173.988281 265.921875 C 174.550781 265.613281 175.128906 265.335938 175.722656 265.085938 C 176.316406 264.839844 176.921875 264.625 177.539062 264.445312 C 178.15625 264.261719 178.78125 264.113281 179.414062 263.996094 C 180.046875 263.878906 180.683594 263.800781 181.324219 263.75 C 181.964844 263.703125 182.609375 263.691406 183.25 263.710938 C 183.894531 263.730469 184.535156 263.785156 185.171875 263.875 C 185.808594 263.964844 186.4375 264.085938 187.0625 264.242188 C 187.683594 264.398438 188.300781 264.589844 188.902344 264.808594 C 189.507812 265.03125 190.097656 265.285156 190.671875 265.570312 L 343.0625 340.949219 C 344.117188 341.464844 344.9375 342.230469 345.523438 343.242188 C 345.726562 343.582031 345.890625 343.9375 346.019531 344.308594 C 346.148438 344.679688 346.242188 345.058594 346.296875 345.449219 C 346.351562 345.839844 346.363281 346.230469 346.339844 346.621094 C 346.316406 347.015625 346.253906 347.402344 346.152344 347.78125 C 346.054688 348.160156 345.914062 348.527344 345.742188 348.882812 C 345.566406 349.234375 345.359375 349.566406 345.121094 349.878906 C 344.878906 350.1875 344.613281 350.472656 344.316406 350.730469 C 344.019531 350.988281 343.699219 351.214844 343.355469 351.410156 Z M 343.355469 351.410156 " fill-opacity="1" fill-rule="nonzero"/></svg>