<svg xmlns="http://www.w3.org/2000/svg" xmlns:xlink="http://www.w3.org/1999/xlink" width="107" height="107" viewBox="0 0 107 107">
  <defs>
    <filter id="Rectangle_16562" x="0" y="0" width="107" height="107" filterUnits="userSpaceOnUse">
      <feOffset dy="4" input="SourceAlpha"/>
      <feGaussianBlur stdDeviation="6.5" result="blur"/>
      <feFlood flood-color="#dce1e5"/>
      <feComposite operator="in" in2="blur"/>
      <feComposite in="SourceGraphic"/>
    </filter>
    <linearGradient id="linear-gradient" x1="0.25" x2="0.624" y2="0.891" gradientUnits="objectBoundingBox">
      <stop offset="0" stop-color="#53c0b0"/>
      <stop offset="0.488" stop-color="#018acb"/>
      <stop offset="1" stop-color="#fd5dc8"/>
    </linearGradient>
  </defs>
  <g id="Group_59087" data-name="Group 59087" transform="translate(-1343.5 -1345.5)">
    <g transform="matrix(1, 0, 0, 1, 1343.5, 1345.5)" filter="url(#Rectangle_16562)">
      <rect id="Rectangle_16562-2" data-name="Rectangle 16562" width="68" height="68" rx="5" transform="translate(19.5 15.5)" fill="#fff"/>
    </g>
    <g id="noun_configuration_2965954" transform="translate(1375.371 1373.231)">
      <g id="Group_59074" data-name="Group 59074" transform="translate(2.5 2.5)">
        <path id="Path_99213" data-name="Path 99213" d="M37.945,16.995l-4-.4-.356-.832,2.535-3.129a2.426,2.426,0,0,0-.158-3.247L33.271,6.658A2.428,2.428,0,0,0,30.024,6.5L26.856,9.034l-.832-.356-.4-4A2.41,2.41,0,0,0,23.212,2.5h-3.8a2.413,2.413,0,0,0-2.416,2.178l-.4,4-.832.356L12.638,6.5a2.426,2.426,0,0,0-3.247.158L6.658,9.351A2.428,2.428,0,0,0,6.5,12.6l2.535,3.168-.356.832-4,.4A2.41,2.41,0,0,0,2.5,19.41v3.8a2.413,2.413,0,0,0,2.178,2.416l4,.4.356.832L6.5,29.984a2.426,2.426,0,0,0,.158,3.247l2.693,2.693a2.428,2.428,0,0,0,3.247.158l3.168-2.495.832.356.4,4a2.41,2.41,0,0,0,2.416,2.178h3.8a2.413,2.413,0,0,0,2.416-2.178l.4-4,.832-.356,3.129,2.535a2.426,2.426,0,0,0,3.247-.158l2.693-2.693a2.428,2.428,0,0,0,.158-3.247l-2.495-3.168.356-.832,4-.4a2.41,2.41,0,0,0,2.178-2.416v-3.8A2.413,2.413,0,0,0,37.945,16.995Zm.079,6.218a.375.375,0,0,1-.317.356L33.271,24a1.444,1.444,0,0,0-1.228.99c-.158.436-.356.871-.554,1.346a1.531,1.531,0,0,0,.158,1.584l2.812,3.445a.327.327,0,0,1-.04.475l-2.693,2.693a.36.36,0,0,1-.436.04l-3.445-2.812a1.443,1.443,0,0,0-1.584-.158,8.02,8.02,0,0,1-1.346.554,1.508,1.508,0,0,0-.99,1.228l-.436,4.436a.349.349,0,0,1-.356.317h-3.8a.375.375,0,0,1-.356-.317l-.436-4.436a1.444,1.444,0,0,0-.99-1.228c-.436-.158-.871-.356-1.346-.554a1.254,1.254,0,0,0-.634-.158,1.5,1.5,0,0,0-.911.317l-3.445,2.812a.327.327,0,0,1-.475-.04L8.044,31.846A.415.415,0,0,1,8,31.37l2.812-3.445a1.443,1.443,0,0,0,.158-1.584,13.68,13.68,0,0,1-.554-1.346A1.508,1.508,0,0,0,9.193,24l-4.277-.436a.349.349,0,0,1-.317-.356v-3.8a.375.375,0,0,1,.317-.356l4.436-.436a1.444,1.444,0,0,0,1.228-.99c.158-.436.356-.871.554-1.346a1.531,1.531,0,0,0-.158-1.584L8.163,11.252a.283.283,0,0,1,.04-.436L10.9,8.124a.415.415,0,0,1,.475-.04L14.816,10.9a1.443,1.443,0,0,0,1.584.158,8.02,8.02,0,0,1,1.346-.554,1.508,1.508,0,0,0,.99-1.228l.436-4.436a.349.349,0,0,1,.356-.317h3.8a.375.375,0,0,1,.356.317l.436,4.436a1.444,1.444,0,0,0,.99,1.228c.436.158.871.356,1.346.554a1.531,1.531,0,0,0,1.584-.158l3.445-2.812a.283.283,0,0,1,.436.04l2.693,2.693a.36.36,0,0,1,.04.436L31.846,14.7a1.443,1.443,0,0,0-.158,1.584,13.679,13.679,0,0,1,.554,1.346,1.508,1.508,0,0,0,1.228.99l4.436.436a.349.349,0,0,1,.317.356v3.8Z" transform="translate(-2.5 -2.5)" fill="url(#linear-gradient)"/>
        <path id="Path_99214" data-name="Path 99214" d="M36.652,27.9A8.752,8.752,0,1,0,45.4,36.652,8.755,8.755,0,0,0,36.652,27.9Zm0,15.445a6.693,6.693,0,1,1,6.693-6.693A6.71,6.71,0,0,1,36.652,43.345Z" transform="translate(-17.841 -17.841)" fill="url(#linear-gradient)"/>
        <path id="Path_99215" data-name="Path 99215" d="M45.764,42.762l-2.891,3.287-1.347-1.5a1.038,1.038,0,1,0-1.545,1.386l2.139,2.416a1.058,1.058,0,0,0,1.584,0l3.643-4.2a1.016,1.016,0,0,0-.079-1.465A1.065,1.065,0,0,0,45.764,42.762Z" transform="translate(-24.973 -26.604)" fill="url(#linear-gradient)"/>
      </g>
    </g>
  </g>
</svg>
